<svg width="282" height="230" viewBox="0 0 282 230" fill="none" xmlns="http://www.w3.org/2000/svg">
<path d="M203.164 101.309C175.191 101.309 152.516 78.6334 152.516 50.6612C152.516 22.689 175.191 0.0132523 203.164 0.0132523C223.163 0.0132523 240.454 11.6027 248.686 28.4337L166.644 45.4317L186.775 61.3069L186.333 61.5085L186.582 85.9201L202.524 73.9635L201.228 72.7054L212.561 81.6421L253.595 45.9462C253.738 47.4981 253.812 49.0719 253.812 50.6612C253.812 78.6334 231.136 101.309 203.164 101.309Z" fill="#0057BE"/>
<path d="M166.643 45.4331L212.56 81.6436L281.554 21.6248L166.643 45.4331Z" fill="#FFBA23"/>
<path d="M186.582 85.9202L190.817 63.5024L251.163 32.057L193.806 65.4948L193.857 65.5449L193.837 65.5568L199.348 70.9745L186.582 85.9202Z" fill="#F0A500"/>
<path d="M181.586 85.7382C96.2643 157.921 11.1348 116.474 41.6066 83.5143C52.8476 71.3557 151.678 46.8233 -7.52158 229.033" stroke="#E89522" stroke-dasharray="7.46 7.46"/>
</svg>
