<svg width="175" height="68" viewBox="0 0 175 68" fill="none" xmlns="http://www.w3.org/2000/svg">
<path d="M3.19479 60.166V33.8419H8.31131V55.6798H21.7329V60.166H3.19479ZM22.8817 60.166V40.738H27.8499V60.166H22.8817ZM22.8817 38.0315V33.1003H27.8499V38.0315H22.8817ZM32.0352 60.166V45.558H29.4769V41.7762H32.0352V40.5897C32.0352 38.1674 32.6161 36.2518 33.7778 34.8429C34.9395 33.434 36.5214 32.7296 38.5235 32.7296C40.1055 32.7296 41.6997 33.1127 43.3064 33.8789L42.3053 37.6236C41.9346 37.4259 41.4896 37.2652 40.9706 37.1416C40.4762 36.9933 40.019 36.9192 39.5988 36.9192C37.8685 36.9192 37.0034 38.0809 37.0034 40.4044V41.7762H41.7492V45.558H37.0034V60.166H32.0352ZM51.1202 60.5368C49.563 60.5368 48.1541 60.2772 46.8935 59.7582C45.6329 59.2144 44.5577 58.4852 43.6679 57.5707C42.7781 56.6561 42.086 55.5933 41.5916 54.3821C41.122 53.171 40.8872 51.898 40.8872 50.5633C40.8872 49.1791 41.122 47.8814 41.5916 46.6703C42.0612 45.4344 42.741 44.3592 43.6308 43.4446C44.5206 42.5054 45.5958 41.7638 46.8564 41.22C48.1418 40.6763 49.5754 40.4044 51.1573 40.4044C52.7392 40.4044 54.1481 40.6763 55.384 41.22C56.6446 41.7638 57.7074 42.493 58.5725 43.4075C59.4624 44.3221 60.1297 45.3849 60.5747 46.5961C61.0443 47.8073 61.2791 49.0679 61.2791 50.3779C61.2791 50.6992 61.2668 51.0082 61.242 51.3048C61.242 51.6014 61.2173 51.8486 61.1679 52.0463H46.152C46.2261 52.8126 46.4115 53.4923 46.7081 54.0855C47.0047 54.6787 47.3879 55.1854 47.8575 55.6056C48.3271 56.0258 48.8586 56.3472 49.4518 56.5696C50.045 56.7921 50.6629 56.9033 51.3056 56.9033C52.2943 56.9033 53.2212 56.6685 54.0863 56.1989C54.9761 55.7045 55.5817 55.0618 55.9031 54.2709L60.1668 55.4573C59.45 56.9404 58.3007 58.1639 56.7187 59.1279C55.1615 60.0671 53.2954 60.5368 51.1202 60.5368ZM56.1626 48.8207C56.039 47.3623 55.4952 46.2006 54.5312 45.3355C53.592 44.4457 52.4426 44.0008 51.0831 44.0008C50.4158 44.0008 49.7855 44.1243 49.1922 44.3715C48.6237 44.594 48.117 44.9153 47.6721 45.3355C47.2272 45.7557 46.8564 46.2624 46.5598 46.8556C46.2879 47.4489 46.1273 48.1039 46.0778 48.8207H56.1626ZM69.1344 46.8186C69.1344 45.2119 69.4186 43.63 69.9871 42.0728C70.5803 40.4909 71.4331 39.082 72.5454 37.8461C73.6577 36.6102 75.0171 35.6092 76.6238 34.8429C78.2304 34.0767 80.0595 33.6936 82.1111 33.6936C84.5334 33.6936 86.622 34.225 88.3769 35.2878C90.1566 36.3507 91.479 37.7349 92.3441 39.4404L88.414 42.1469C88.068 41.4054 87.6478 40.7875 87.1534 40.2931C86.6591 39.7741 86.1276 39.3662 85.5591 39.0696C84.9906 38.773 84.3974 38.5629 83.7795 38.4393C83.1615 38.291 82.556 38.2169 81.9627 38.2169C80.6774 38.2169 79.5528 38.4764 78.5888 38.9955C77.6495 39.5145 76.8586 40.1943 76.2159 41.0347C75.598 41.8503 75.1284 42.7896 74.807 43.8525C74.4857 44.8906 74.325 45.9287 74.325 46.9669C74.325 48.1286 74.5104 49.2532 74.8812 50.3408C75.2519 51.4037 75.771 52.3429 76.4384 53.1586C77.1305 53.9743 77.9462 54.6293 78.8854 55.1236C79.8494 55.618 80.8999 55.8652 82.0369 55.8652C82.6301 55.8652 83.2481 55.791 83.8907 55.6427C84.5334 55.4944 85.1389 55.2596 85.7075 54.9383C86.3007 54.6169 86.8445 54.2091 87.3388 53.7147C87.8332 53.1957 88.2286 52.5777 88.5252 51.8609L92.7149 54.2709C92.2947 55.2596 91.6891 56.1371 90.8981 56.9033C90.1319 57.6448 89.2544 58.2751 88.2657 58.7942C87.3017 59.3133 86.2636 59.7087 85.1513 59.9806C84.039 60.2525 82.9514 60.3885 81.8886 60.3885C80.0101 60.3885 78.2922 59.993 76.735 59.202C75.1778 58.4111 73.8307 57.3853 72.6937 56.1247C71.5814 54.8394 70.7039 53.3934 70.0613 51.7868C69.4433 50.1554 69.1344 48.4993 69.1344 46.8186ZM103.154 60.5368C101.572 60.5368 100.15 60.2649 98.8898 59.7211C97.6292 59.1773 96.554 58.4481 95.6642 57.5336C94.7991 56.5943 94.1317 55.5191 93.662 54.308C93.1924 53.0968 92.9576 51.8239 92.9576 50.4891C92.9576 49.1296 93.1924 47.8443 93.662 46.6332C94.1317 45.422 94.7991 44.3592 95.6642 43.4446C96.554 42.5054 97.6292 41.7638 98.8898 41.22C100.15 40.6763 101.572 40.4044 103.154 40.4044C104.735 40.4044 106.144 40.6763 107.38 41.22C108.641 41.7638 109.704 42.5054 110.569 43.4446C111.459 44.3592 112.138 45.422 112.608 46.6332C113.078 47.8443 113.312 49.1296 113.312 50.4891C113.312 51.8239 113.078 53.0968 112.608 54.308C112.138 55.5191 111.471 56.5943 110.606 57.5336C109.741 58.4481 108.678 59.1773 107.417 59.7211C106.157 60.2649 104.735 60.5368 103.154 60.5368ZM98.0741 50.4891C98.0741 51.3542 98.1977 52.1452 98.4449 52.862C98.7168 53.5541 99.0752 54.1597 99.5201 54.6787C99.9897 55.1978 100.534 55.6056 101.151 55.9022C101.769 56.1741 102.437 56.3101 103.154 56.3101C103.87 56.3101 104.538 56.1741 105.156 55.9022C105.774 55.6056 106.305 55.1978 106.75 54.6787C107.22 54.1597 107.578 53.5417 107.825 52.8249C108.097 52.1081 108.233 51.3171 108.233 50.452C108.233 49.6116 108.097 48.833 107.825 48.1162C107.578 47.3994 107.22 46.7815 106.75 46.2624C106.305 45.7433 105.774 45.3479 105.156 45.076C104.538 44.7794 103.87 44.6311 103.154 44.6311C102.437 44.6311 101.769 44.7794 101.151 45.076C100.534 45.3726 99.9897 45.7804 99.5201 46.2995C99.0752 46.8186 98.7168 47.4365 98.4449 48.1533C98.1977 48.8701 98.0741 49.6487 98.0741 50.4891ZM120.485 60.5368C119.545 60.5368 118.668 60.3885 117.852 60.0919C117.037 59.7705 116.332 59.338 115.739 58.7942C115.146 58.2257 114.676 57.5707 114.33 56.8292C114.009 56.0876 113.848 55.2719 113.848 54.3821C113.848 53.4676 114.046 52.6272 114.441 51.8609C114.861 51.07 115.43 50.4026 116.147 49.8588C116.888 49.315 117.766 48.8948 118.779 48.5982C119.793 48.2769 120.905 48.1162 122.116 48.1162C122.981 48.1162 123.822 48.1904 124.637 48.3387C125.478 48.487 126.219 48.6971 126.862 48.969V47.8567C126.862 46.5714 126.491 45.5827 125.75 44.8906C125.033 44.1985 123.958 43.8525 122.524 43.8525C121.486 43.8525 120.472 44.0378 119.484 44.4086C118.495 44.7794 117.482 45.3231 116.443 46.04L114.923 42.8885C117.42 41.2324 120.114 40.4044 123.006 40.4044C125.799 40.4044 127.962 41.0965 129.494 42.4806C131.051 43.8401 131.83 45.8175 131.83 48.4128V54.4563C131.83 54.9753 131.917 55.3461 132.09 55.5686C132.287 55.791 132.596 55.9146 133.016 55.9393V60.166C132.176 60.339 131.447 60.4255 130.829 60.4255C129.89 60.4255 129.161 60.2155 128.641 59.7953C128.147 59.3751 127.838 58.8189 127.715 58.1268L127.603 57.0516C126.738 58.1886 125.688 59.0537 124.452 59.6469C123.216 60.2402 121.894 60.5368 120.485 60.5368ZM121.894 56.9033C122.734 56.9033 123.525 56.755 124.266 56.4584C125.033 56.1618 125.626 55.7663 126.046 55.2719C126.59 54.8518 126.862 54.3821 126.862 53.863V51.6385C126.269 51.416 125.626 51.243 124.934 51.1194C124.242 50.9711 123.574 50.8969 122.932 50.8969C121.646 50.8969 120.596 51.1936 119.78 51.7868C118.965 52.3553 118.557 53.0844 118.557 53.9743C118.557 54.8147 118.878 55.5191 119.521 56.0876C120.163 56.6314 120.954 56.9033 121.894 56.9033ZM133.766 50.452C133.766 49.0926 134.001 47.8073 134.471 46.5961C134.94 45.3849 135.62 44.3221 136.51 43.4075C137.4 42.493 138.475 41.7638 139.735 41.22C140.996 40.6763 142.417 40.4044 143.999 40.4044C146.125 40.4044 147.929 40.8616 149.412 41.7762C150.92 42.6907 152.045 43.8895 152.786 45.3726L147.929 46.8556C147.509 46.1388 146.953 45.595 146.261 45.2243C145.569 44.8288 144.802 44.6311 143.962 44.6311C143.245 44.6311 142.578 44.7794 141.96 45.076C141.342 45.3479 140.798 45.7433 140.329 46.2624C139.884 46.7568 139.525 47.3623 139.253 48.0792C139.006 48.796 138.883 49.5869 138.883 50.452C138.883 51.3171 139.019 52.1081 139.29 52.8249C139.562 53.5417 139.921 54.1597 140.366 54.6787C140.835 55.1978 141.379 55.6056 141.997 55.9022C142.615 56.1741 143.27 56.3101 143.962 56.3101C144.852 56.3101 145.668 56.0876 146.409 55.6427C147.175 55.1978 147.707 54.654 148.003 54.0114L152.86 55.4944C152.193 56.9775 151.093 58.1886 149.561 59.1279C148.028 60.0671 146.187 60.5368 144.036 60.5368C142.454 60.5368 141.033 60.2649 139.772 59.7211C138.512 59.1773 137.437 58.4481 136.547 57.5336C135.657 56.5943 134.965 55.5191 134.471 54.308C134.001 53.0721 133.766 51.7868 133.766 50.452ZM172.491 60.166H167.522V49.2656C167.522 47.7331 167.238 46.6085 166.67 45.8917C166.101 45.1501 165.298 44.7794 164.26 44.7794C163.815 44.7794 163.345 44.8782 162.851 45.076C162.356 45.2737 161.887 45.558 161.442 45.9287C160.997 46.2748 160.589 46.695 160.218 47.1893C159.848 47.6837 159.576 48.2275 159.403 48.8207V60.166H154.434V33.1003H159.403V44.3344C160.119 43.0739 161.083 42.1099 162.295 41.4425C163.53 40.7504 164.89 40.4044 166.373 40.4044C167.634 40.4044 168.659 40.6268 169.45 41.0717C170.241 41.4919 170.859 42.0604 171.304 42.7772C171.749 43.4941 172.058 44.3097 172.231 45.2243C172.404 46.1388 172.491 47.0781 172.491 48.0421V60.166Z" fill="#FFBA23"/>
<path d="M59.4786 9.10442L59.8646 9.21471C59.9933 9.21471 60.1495 9.1228 60.3334 8.93897C60.5172 8.73676 60.6734 8.63566 60.8021 8.63566C60.9492 8.63566 61.1514 8.71838 61.4087 8.88383C61.6661 9.03089 61.7948 9.16876 61.7948 9.29744C61.7948 9.59156 61.1238 10.5567 59.7819 12.1927C58.4399 13.8104 56.9693 15.5476 55.37 17.4042C53.7707 19.2609 52.3001 21.1359 50.9582 23.0293C49.6162 24.9044 48.9453 26.2095 48.9453 26.9449C48.9453 28.1949 49.0372 29.1508 49.221 29.8126L49.3037 30.0883C49.3037 30.217 49.1475 30.2813 48.835 30.2813C48.5225 30.2813 48.2743 30.2537 48.0905 30.1986C47.925 30.1618 47.7228 30.0699 47.4838 29.9229C47.0426 29.6287 46.7301 28.8475 46.5463 27.5791C46.5463 26.9724 46.6015 26.4118 46.7118 25.897C46.8221 25.3639 47.0794 24.7297 47.4838 23.9944C47.9066 23.2591 48.3111 22.5973 48.6971 22.0091C49.1015 21.4208 49.8001 20.5293 50.7927 19.3344C52.0979 17.7719 53.5593 16.0899 55.177 14.2883C56.7947 12.4685 57.677 11.4758 57.8241 11.3103C57.9896 11.1265 58.0723 11.0162 58.0723 10.9795C58.0723 10.9427 57.5484 11.3931 56.5006 12.3306C55.4711 13.2497 53.6788 14.9042 51.1236 17.2939C48.5868 19.6837 47.0151 21.237 46.4084 21.9539C44.0003 24.7114 42.5205 26.5037 41.969 27.3309C41.8771 27.5699 41.7117 27.6894 41.4727 27.6894C41.2521 27.6894 41.0499 27.5331 40.866 27.2206C40.5535 26.6875 40.3973 26.0165 40.3973 25.2077C40.7649 23.8657 41.4819 22.1745 42.5481 20.1341C43.6143 18.0752 44.8 16.0531 46.1051 14.0678L47.4011 12.3857C47.5298 12.1835 47.5941 12.0548 47.5941 11.9997L47.5666 11.9721C47.5482 11.9721 46.8404 12.7258 45.4433 14.2332C44.0463 15.7406 43.219 16.6413 42.9617 16.9355L37.0608 23.3878C34.7262 25.943 33.0442 27.4871 32.0148 28.0202C30.2316 28.6085 29.1563 28.9394 28.7886 29.0129C28.5864 29.0129 28.4853 28.9761 28.4853 28.9026C28.4853 28.8291 28.5772 28.7096 28.761 28.5441C31.4449 25.8051 33.1269 24.1047 33.8071 23.4429C33.9541 23.351 35.1582 22.2021 37.4193 19.9962C39.6804 17.7719 42.0977 15.474 44.6713 13.1027C47.2632 10.7313 49.1015 9.25148 50.1861 8.66323C50.903 8.44264 51.4361 8.33234 51.7854 8.33234C52.153 8.33234 52.3369 8.43345 52.3369 8.63566C52.3369 8.76434 52.2541 8.9114 52.0887 9.07684C49.3129 13.0475 47.686 15.5568 47.2081 16.6046L45.5261 19.7756C45.4709 19.9043 45.4433 19.9962 45.4433 20.0513C45.4433 20.1616 45.4617 20.1984 45.4985 20.1616C46.9507 18.9851 48.8533 17.3307 51.2063 15.1983C53.5777 13.0659 55.3884 11.5217 56.6384 10.5658C57.8885 9.59156 58.8352 9.10442 59.4786 9.10442ZM64.6347 18.0936C65.4987 18.1855 65.9307 18.3785 65.9307 18.6726C65.9307 18.8013 65.8571 18.9484 65.7101 19.1138C63.1181 21.9999 60.1401 25.6764 56.7761 30.1434C55.8018 31.467 54.8091 32.717 53.7981 33.8935C52.787 35.07 51.8403 35.9248 50.9579 36.4579C50.0756 37.0094 49.1564 37.2851 48.2005 37.2851C47.7226 37.2851 47.2998 37.1565 46.9321 36.8991C46.5645 36.6417 46.3806 36.2925 46.3806 35.8513C46.3806 34.8218 46.877 33.7557 47.8696 32.6527C48.8623 31.5497 49.9745 30.649 51.2061 29.9504C52.4378 29.2703 53.504 28.875 54.4047 28.7647L54.9838 28.8475C55.1676 28.8291 55.8386 28.1213 56.9967 26.7243C58.1732 25.3272 58.7614 24.5919 58.7614 24.5183C58.7798 24.4264 58.7706 24.3805 58.7338 24.3805L58.2099 24.7941C56.8312 26.0809 55.7558 26.7243 54.9838 26.7243C54.4874 26.7243 54.2393 26.375 54.2393 25.6764C54.2393 24.7389 55.0021 23.2591 56.5279 21.237C58.0537 19.2149 59.175 18.2039 59.892 18.2039C59.9471 18.2039 60.0114 18.2222 60.085 18.259C60.5997 18.3877 60.857 18.5715 60.857 18.8105C60.857 18.9024 60.8295 18.9759 60.7743 19.0311C60.7376 19.0679 60.5537 19.2425 60.2228 19.555C59.9103 19.8675 59.5978 20.1984 59.2853 20.5477C58.9728 20.8786 58.6419 21.2462 58.2927 21.6506C57.5022 22.5698 57.107 23.2591 57.107 23.7187C57.107 23.829 57.1621 23.8841 57.2724 23.8841C57.4011 23.8841 57.6309 23.783 57.9618 23.5808C60.5721 21.7977 62.6126 20.0973 64.0832 18.4796C64.2119 18.2222 64.3957 18.0936 64.6347 18.0936ZM47.8145 36.0719C48.4579 35.8697 49.3219 35.2355 50.4065 34.1693C51.491 33.1214 52.4194 32.1288 53.1914 31.1913L54.3496 29.7574C54.4599 29.6103 54.515 29.5184 54.515 29.4817C54.515 29.4449 54.4874 29.4265 54.4323 29.4265C53.844 29.4265 53.0076 29.8769 51.923 30.7776C50.8201 31.6784 49.8458 32.6619 49.0002 33.7281C48.1362 34.7943 47.7042 35.548 47.7042 35.9892C47.7042 36.0443 47.741 36.0719 47.8145 36.0719ZM91.7704 9.35258C92.5609 9.79377 93.2042 10.3912 93.7006 11.1449C94.2153 11.8986 94.4727 12.7442 94.4727 13.6817C94.4727 14.6192 93.8844 15.6946 92.7079 16.9079C91.5314 18.1211 90.0976 19.1598 88.4064 20.0238C86.7335 20.8694 85.2721 21.2922 84.0221 21.2922C82.7904 21.2922 81.8989 20.7774 81.3474 19.748C78.1856 23.9944 76.4024 26.568 75.998 27.4688C76.0164 27.5607 76.0256 27.6894 76.0256 27.8548C76.0256 28.0386 75.9245 28.1305 75.7223 28.1305C75.5201 28.1305 75.2535 27.9559 74.9226 27.6066C74.6101 27.2757 74.4539 26.7978 74.4539 26.1728C74.4539 25.989 74.4631 25.8419 74.4814 25.7316C74.6469 24.5183 76.3289 22.1286 79.5275 18.5623C82.7445 14.9961 85.0607 12.8269 86.4762 12.0548C86.7703 11.9078 86.9909 11.8343 87.1379 11.8343C87.285 11.8343 87.4321 11.8802 87.5791 11.9721C87.7446 12.064 87.8273 12.1743 87.8273 12.303C87.8273 12.4317 87.7905 12.5328 87.717 12.6063C86.3383 14.0402 85.5111 14.9134 85.2353 15.2259L81.954 19.0311C81.9173 19.0862 81.8989 19.1414 81.8989 19.1965C81.8989 19.3252 81.9816 19.3896 82.147 19.3896C82.8823 19.3896 83.875 19.1782 85.125 18.7553C86.3934 18.3325 87.6435 17.8086 88.8751 17.1836C90.1068 16.5402 91.173 15.7957 92.0737 14.9501C92.9745 14.0861 93.4248 13.2865 93.4248 12.5512C93.4248 11.9445 92.8458 11.4942 91.6877 11.2C90.5296 10.9059 89.2795 10.7589 87.9376 10.7589C86.614 10.7589 85.1802 10.9519 83.636 11.3379C82.0919 11.7056 80.7408 12.1651 79.5826 12.7166C78.4429 13.2681 77.4135 13.8472 76.4943 14.4538C75.5752 15.042 74.8767 15.5659 74.3987 16.0255C73.9392 16.4667 73.7094 16.7608 73.7094 16.9079C73.7094 17.0366 73.7737 17.1009 73.9024 17.1009C74.0311 17.1009 74.3803 17.009 74.9502 16.8252C76.7885 16.2185 78.59 15.4005 80.3547 14.3711C80.4834 14.2975 80.5661 14.2608 80.6029 14.2608C80.658 14.2608 80.6856 14.2883 80.6856 14.3435C80.6856 14.3803 80.5661 14.5549 80.3271 14.8674C80.1066 15.1615 79.794 15.5292 79.3896 15.9704C78.9852 16.3932 78.544 16.8068 78.0661 17.2112C77.5881 17.6156 77.0458 17.9649 76.4392 18.259C75.851 18.5348 75.2719 18.6726 74.702 18.6726C74.1506 18.6726 73.5991 18.452 73.0476 18.0108C72.5145 17.5513 72.2479 16.9355 72.2479 16.1634C72.2479 15.3729 72.634 14.5181 73.4061 13.599C74.1781 12.6799 75.1892 11.8067 76.4392 10.9795C77.7076 10.1522 79.2793 9.45369 81.1544 8.88383C83.0294 8.31396 84.8585 8.02903 86.6416 8.02903C88.4247 8.02903 90.1343 8.47021 91.7704 9.35258ZM91.8014 25.7867C92.3897 25.7867 93.1158 25.4007 93.9798 24.6286C94.8438 23.8566 95.2941 23.3235 95.3309 23.0293C95.1103 22.8455 94.8713 22.5146 94.614 22.0367C94.375 21.5403 94.2463 21.2922 94.2279 21.2922C93.6581 21.8253 93.1525 22.4411 92.7114 23.1396C92.0128 24.3161 91.6635 25.125 91.6635 25.5661C91.6635 25.7132 91.7095 25.7867 91.8014 25.7867ZM97.7574 19.0311C97.5736 19.0311 97.1876 19.316 96.5993 19.8859C96.0294 20.4558 95.7445 20.851 95.7445 21.0716C95.7445 21.1267 95.7997 21.237 95.91 21.4025C96.0202 21.5679 96.103 21.6506 96.1581 21.6506C96.4706 21.6506 96.8199 21.2738 97.2059 20.5201C97.6104 19.7664 97.8126 19.3344 97.8126 19.2241C97.8126 19.0954 97.7942 19.0311 97.7574 19.0311ZM97.8126 22.5881C98.3273 22.5881 99.1269 22.2756 100.212 21.6506C101.314 21.0256 102.28 20.4006 103.107 19.7756L104.348 18.8105C104.513 18.9392 104.596 19.0954 104.596 19.2793C104.596 19.4631 104.513 19.6285 104.348 19.7756C101.314 22.5881 99.0166 23.9944 97.4541 23.9944C97.3438 23.9944 97.1784 23.976 96.9578 23.9393C94.8805 26.3474 93.0974 27.5515 91.6084 27.5515C90.6157 27.4044 89.9907 27.0551 89.7334 26.5037C89.5863 26.2279 89.5128 25.8787 89.5128 25.4559C89.5128 24.2426 90.2113 22.7995 91.6084 21.1267C93.0055 19.4355 94.761 18.1947 96.875 17.4042C97.0589 17.4042 97.1967 17.4502 97.2887 17.5421C97.3806 17.6156 97.4633 17.6616 97.5368 17.68C97.6104 17.68 97.7023 17.6432 97.8126 17.5697C97.9412 17.4777 98.1067 17.4318 98.3089 17.4318C98.5111 17.4134 98.7225 17.5237 98.9431 17.7627C99.2372 18.0017 99.3843 18.2958 99.3843 18.6451C99.3843 19.6745 98.8604 20.9888 97.8126 22.5881ZM112.237 18.4796C112.219 19.1414 111.805 19.794 110.996 20.4374C110.206 21.0808 109.241 21.4025 108.101 21.4025C107.623 21.4025 107.384 21.2646 107.384 20.9888C107.384 20.8786 107.467 20.7958 107.632 20.7407C108.735 20.0973 109.434 19.5734 109.728 19.169C109.765 19.0954 109.783 19.0127 109.783 18.9208C109.783 18.8289 109.737 18.7829 109.645 18.7829C108.083 19.0035 106.594 19.8583 105.178 21.3473C103.763 22.8363 103.055 23.9944 103.055 24.8216C103.055 25.2077 103.202 25.4007 103.496 25.4007C104.857 25.4007 106.29 25.0055 107.798 24.215C109.305 23.4246 111.548 21.9723 114.526 19.8583C114.728 19.7112 115.031 19.4907 115.436 19.1965C115.859 18.9024 116.107 18.7278 116.18 18.6726C116.346 18.8013 116.429 18.9576 116.429 19.1414C116.429 19.3252 116.346 19.4907 116.18 19.6377C115.261 20.5569 114.066 21.5863 112.596 22.726C111.143 23.8657 109.471 24.9503 107.577 25.9798C105.684 26.9908 104.14 27.4963 102.945 27.4963C101.529 27.4963 100.822 26.7426 100.822 25.2353C100.822 24.1874 101.171 23.1672 101.869 22.1745C102.568 21.1635 103.423 20.3179 104.434 19.6377C105.445 18.9576 106.502 18.4153 107.605 18.0108C108.708 17.588 109.59 17.3766 110.252 17.3766C110.932 17.3766 111.419 17.4686 111.713 17.6524C112.007 17.8362 112.164 18.02 112.182 18.2039L112.237 18.4796ZM126.241 10.235C126.719 10.235 126.995 10.3453 127.068 10.5658C127.068 10.6394 126.609 11.1633 125.69 12.1376C124.789 13.0935 123.539 14.417 121.939 16.1082C120.359 17.7811 118.998 19.2701 117.858 20.5752C117.785 20.6304 117.748 20.7039 117.748 20.7958C117.748 20.8877 117.767 20.9337 117.803 20.9337C117.858 20.9337 117.923 20.8969 117.996 20.8234L119.044 19.9962C119.798 19.5182 120.625 19.0954 121.526 18.7278C122.445 18.3601 123.208 18.1763 123.814 18.1763C124.182 18.2866 124.522 18.5439 124.835 18.9484C125 19.1138 125.083 19.3068 125.083 19.5274C125.083 20.1892 124.265 21.0348 122.629 22.0642C121.011 23.0937 119.522 23.7095 118.162 23.9117C118.143 23.9301 118.134 23.9485 118.134 23.9669C118.134 24.1139 118.566 24.6378 119.43 25.5386C120.313 26.4209 120.993 27 121.471 27.2757C121.857 27.4596 122.105 27.5515 122.215 27.5515C122.289 27.5882 122.325 27.6342 122.325 27.6894C122.325 27.7445 122.27 27.818 122.16 27.9099C121.737 28.2592 121.305 28.4339 120.864 28.4339C120.423 28.4339 120.12 28.4155 119.954 28.3787C119.807 28.3419 119.66 28.296 119.513 28.2408C119.366 28.1857 119.182 28.0386 118.961 27.7996C118.759 27.5791 118.548 27.3493 118.327 27.1103C118.125 26.8897 117.785 26.5037 117.307 25.9522C116.829 25.3823 116.333 24.8216 115.818 24.2702C115.744 24.1599 115.662 24.1047 115.57 24.1047C115.478 24.1047 115.386 24.1507 115.294 24.2426C114.154 25.1066 113.401 26.0625 113.033 27.1103C113.015 27.2757 112.904 27.3585 112.702 27.3585H112.675C111.921 27.3585 111.415 26.954 111.158 26.1452C111.158 25.9614 111.241 25.704 111.406 25.3731C112.987 23.0018 114.522 20.998 116.011 19.362C117.518 17.7259 120.193 15.0512 124.035 11.3379C124.403 11.0438 124.642 10.8508 124.752 10.7589C124.862 10.6669 124.973 10.5842 125.083 10.5107C125.212 10.4188 125.313 10.3636 125.386 10.3453C125.533 10.2717 125.717 10.235 125.938 10.235H126.241ZM122.408 19.6653C122.041 19.6837 121.425 19.941 120.561 20.4374C119.715 20.9337 118.952 21.43 118.272 21.9264L117.279 22.6433C117.206 22.7168 117.169 22.7812 117.169 22.8363C117.169 22.8731 117.197 22.8915 117.252 22.8915C117.693 22.8915 118.677 22.4319 120.202 21.5128C121.728 20.5752 122.491 19.9962 122.491 19.7756L122.408 19.6653ZM133.288 18.6726C132.81 18.6726 132.002 19.169 130.862 20.1616C129.722 21.1359 129.152 21.7333 129.152 21.9539C129.152 21.9907 129.18 22.0091 129.235 22.0091C129.639 22.0091 130.439 21.5587 131.634 20.658C132.847 19.7572 133.454 19.1414 133.454 18.8105C133.454 18.7186 133.399 18.6726 133.288 18.6726ZM127.415 27.4963C126 27.4963 125.292 26.6323 125.292 24.9044C125.292 23.8198 125.761 22.6709 126.698 21.4576C127.654 20.226 128.775 19.2241 130.062 18.452C131.349 17.6616 132.489 17.2663 133.481 17.2663C133.923 17.2663 134.327 17.441 134.695 17.7903C135.081 18.1395 135.274 18.4796 135.274 18.8105C135.274 19.4171 134.842 20.1065 133.978 20.8786C133.114 21.6322 132.204 22.2481 131.248 22.726C130.31 23.1856 129.685 23.4154 129.373 23.4154C129.079 23.4154 128.858 23.2775 128.711 23.0018C128.638 22.9466 128.536 22.919 128.408 22.919C128.279 22.919 128.068 23.1672 127.774 23.6635C127.479 24.1415 127.332 24.5367 127.332 24.8492C127.332 25.1433 127.443 25.3272 127.663 25.4007C129.06 25.4007 130.577 24.9963 132.213 24.1874C133.849 23.3602 136.11 21.9172 138.996 19.8583C139.198 19.7112 139.502 19.4907 139.906 19.1965C140.329 18.9024 140.577 18.7278 140.651 18.6726C140.816 18.8013 140.899 18.9576 140.899 19.1414C140.899 19.3252 140.816 19.4907 140.651 19.6377C139.731 20.5569 138.537 21.5863 137.066 22.726C135.614 23.8657 133.941 24.9503 132.048 25.9798C130.154 26.9908 128.61 27.4963 127.415 27.4963ZM148.82 14.2608L150.226 14.2332C152.046 14.2332 153.369 14.4906 154.197 15.0053C154.601 15.134 154.803 15.2994 154.803 15.5016C154.803 15.6487 154.619 15.7498 154.252 15.8049C153.902 15.8601 152.662 16.0071 150.529 16.2461C148.415 16.4667 146.963 16.5954 146.173 16.6321C145.823 16.6505 145.014 17.2572 143.746 18.452C142.496 19.6469 141.301 20.9613 140.161 22.3951C139.022 23.829 138.452 24.8308 138.452 25.4007C138.452 25.4926 138.498 25.5753 138.59 25.6489C138.682 25.704 138.792 25.7316 138.921 25.7316C139.068 25.7316 139.288 25.6764 139.582 25.5661C143.075 23.5073 146.467 21.2554 149.757 18.8105C149.923 18.9392 150.005 19.0954 150.005 19.2793C150.005 19.4631 149.913 19.6469 149.73 19.8307C149.546 19.9962 149.27 20.2443 148.902 20.5752C148.553 20.9061 147.891 21.5036 146.917 22.3676C145.943 23.2315 145.024 24.0036 144.16 24.6838C141.843 26.5588 140.226 27.6434 139.307 27.9375C138.976 28.0294 138.58 28.0754 138.121 28.0754C137.68 28.0754 137.266 27.8456 136.88 27.386C136.512 26.9265 136.329 26.3015 136.329 25.511C136.329 24.7205 136.834 23.5808 137.845 22.0918C138.875 20.6028 140.272 19.077 142.036 17.5145C142.202 17.3858 142.285 17.2663 142.285 17.1561C142.285 17.0458 142.092 16.9906 141.706 16.9906L139.968 17.0458C137.523 17.0458 136.264 16.77 136.191 16.2185C135.621 16.1082 135.336 15.9428 135.336 15.7222C135.336 15.6487 135.373 15.6119 135.446 15.6119C135.52 15.5935 135.584 15.5843 135.639 15.5843C135.694 15.5659 135.786 15.5476 135.915 15.5292C136.044 15.5108 137.055 15.3637 138.948 15.088C140.86 14.8123 143.029 14.5825 145.456 14.3986L147.358 11.8618C147.469 11.6412 147.855 11.5309 148.516 11.5309C149.178 11.5309 149.509 11.6688 149.509 11.9445C149.509 12.0365 149.435 12.2019 149.288 12.4409L148.599 13.406C148.507 13.7001 148.452 13.9207 148.434 14.0678C148.434 14.1964 148.562 14.2608 148.82 14.2608Z" fill="#0057BE"/>
</svg>
