<svg width="164" height="64" viewBox="0 0 164 64" fill="none" xmlns="http://www.w3.org/2000/svg">
<path d="M2.99398 56.5212V31.8517H7.78889V52.317H20.3669V56.5212H2.99398ZM21.4434 56.5212V38.3145H26.0994V56.5212H21.4434ZM21.4434 35.778V31.1568H26.0994V35.778H21.4434ZM30.0216 56.5212V42.8314H27.6241V39.2873H30.0216V38.1755C30.0216 35.9054 30.5659 34.1102 31.6546 32.7899C32.7433 31.4695 34.2258 30.8094 36.1021 30.8094C37.5846 30.8094 39.0786 31.1684 40.5843 31.8865L39.6461 35.3958C39.2987 35.2105 38.8817 35.0599 38.3953 34.9441C37.932 34.8051 37.5035 34.7356 37.1097 34.7356C35.4882 34.7356 34.6775 35.8243 34.6775 38.0017V39.2873H39.125V42.8314H34.6775V56.5212H30.0216ZM47.9069 56.8687C46.4476 56.8687 45.1273 56.6255 43.9459 56.139C42.7646 55.6294 41.7569 54.9461 40.923 54.089C40.0891 53.232 39.4406 52.2359 38.9773 51.1009C38.5372 49.9659 38.3171 48.7729 38.3171 47.5221C38.3171 46.2249 38.5372 45.0088 38.9773 43.8738C39.4174 42.7156 40.0544 41.708 40.8883 40.8509C41.7222 39.9707 42.7298 39.2758 43.9112 38.7662C45.1157 38.2565 46.4592 38.0017 47.9417 38.0017C49.4242 38.0017 50.7445 38.2565 51.9027 38.7662C53.0841 39.2758 54.0801 39.9591 54.8908 40.8162C55.7247 41.6732 56.3502 42.6693 56.7671 43.8043C57.2072 44.9393 57.4273 46.1207 57.4273 47.3484C57.4273 47.6495 57.4157 47.939 57.3925 48.217C57.3925 48.495 57.3694 48.7266 57.323 48.9119H43.251C43.3205 49.63 43.4942 50.267 43.7722 50.8229C44.0502 51.3789 44.4092 51.8537 44.8493 52.2475C45.2894 52.6413 45.7875 52.9424 46.3434 53.1509C46.8993 53.3594 47.4784 53.4636 48.0807 53.4636C49.0072 53.4636 49.8759 53.2436 50.6866 52.8034C51.5205 52.3402 52.088 51.7379 52.3892 50.9967L56.3849 52.1085C55.7132 53.4984 54.636 54.645 53.1536 55.5484C51.6942 56.4286 49.9454 56.8687 47.9069 56.8687ZM52.6324 45.889C52.5166 44.5224 52.0069 43.4337 51.1036 42.6229C50.2233 41.789 49.1462 41.3721 47.8722 41.3721C47.2468 41.3721 46.6561 41.4879 46.1002 41.7195C45.5674 41.928 45.0925 42.2291 44.6756 42.6229C44.2586 43.0167 43.9112 43.4916 43.6332 44.0475C43.3784 44.6034 43.2279 45.2173 43.1815 45.889H52.6324ZM64.7888 44.0128C64.7888 42.5071 65.0552 41.0246 65.5879 39.5653C66.1439 38.0828 66.943 36.7625 67.9854 35.6043C69.0278 34.4461 70.3018 33.508 71.8074 32.7899C73.3131 32.0718 75.0272 31.7128 76.9498 31.7128C79.2198 31.7128 81.1772 32.2108 82.8218 33.2068C84.4896 34.2029 85.7289 35.5001 86.5396 37.0984L82.8566 39.6348C82.5323 38.9399 82.1385 38.3608 81.6752 37.8975C81.2119 37.4111 80.7139 37.0289 80.1811 36.7509C79.6484 36.4729 79.0924 36.276 78.5133 36.1602C77.9343 36.0212 77.3667 35.9517 76.8108 35.9517C75.6063 35.9517 74.5523 36.195 73.6489 36.6814C72.7687 37.1679 72.0275 37.8049 71.4252 38.5924C70.8461 39.3568 70.406 40.2371 70.1049 41.2331C69.8037 42.206 69.6532 43.1789 69.6532 44.1517C69.6532 45.2404 69.8269 46.2944 70.1744 47.3136C70.5218 48.3097 71.0083 49.1899 71.6337 49.9543C72.2823 50.7187 73.0467 51.3325 73.9269 51.7958C74.8303 52.2591 75.8148 52.4907 76.8803 52.4907C77.4362 52.4907 78.0153 52.4212 78.6176 52.2823C79.2198 52.1433 79.7874 51.9232 80.3201 51.6221C80.8761 51.321 81.3857 50.9388 81.8489 50.4755C82.3122 49.989 82.6828 49.4099 82.9608 48.7382L86.8871 50.9967C86.4933 51.9232 85.9258 52.7455 85.1845 53.4636C84.4665 54.1585 83.6441 54.7492 82.7176 55.2356C81.8142 55.7221 80.8413 56.0927 79.7989 56.3475C78.7566 56.6023 77.7374 56.7297 76.7413 56.7297C74.9809 56.7297 73.371 56.3591 71.9117 55.6179C70.4523 54.8766 69.1899 53.9153 68.1244 52.734C67.082 51.5294 66.2597 50.1743 65.6574 48.6687C65.0783 47.1399 64.7888 45.5879 64.7888 44.0128ZM96.6696 56.8687C95.1872 56.8687 93.8552 56.6139 92.6739 56.1043C91.4925 55.5947 90.4849 54.9114 89.651 54.0543C88.8403 53.1741 88.2148 52.1664 87.7747 51.0314C87.3346 49.8964 87.1146 48.7034 87.1146 47.4526C87.1146 46.1786 87.3346 44.9741 87.7747 43.839C88.2148 42.704 88.8403 41.708 89.651 40.8509C90.4849 39.9707 91.4925 39.2758 92.6739 38.7662C93.8552 38.2565 95.1872 38.0017 96.6696 38.0017C98.1521 38.0017 99.4725 38.2565 100.631 38.7662C101.812 39.2758 102.808 39.9707 103.619 40.8509C104.453 41.708 105.09 42.704 105.53 43.839C105.97 44.9741 106.19 46.1786 106.19 47.4526C106.19 48.7034 105.97 49.8964 105.53 51.0314C105.09 52.1664 104.464 53.1741 103.654 54.0543C102.843 54.9114 101.847 55.5947 100.665 56.1043C99.484 56.6139 98.1521 56.8687 96.6696 56.8687ZM91.9095 47.4526C91.9095 48.2633 92.0253 49.0046 92.2569 49.6763C92.5117 50.3249 92.8476 50.8924 93.2646 51.3789C93.7047 51.8653 94.2143 52.2475 94.7934 52.5255C95.3725 52.7803 95.9979 52.9077 96.6696 52.9077C97.3414 52.9077 97.9668 52.7803 98.5459 52.5255C99.125 52.2475 99.623 51.8653 100.04 51.3789C100.48 50.8924 100.816 50.3133 101.048 49.6416C101.302 48.9698 101.43 48.2286 101.43 47.4178C101.43 46.6303 101.302 45.9006 101.048 45.2289C100.816 44.5571 100.48 43.978 100.04 43.4916C99.623 43.0051 99.125 42.6345 98.5459 42.3797C97.9668 42.1017 97.3414 41.9628 96.6696 41.9628C95.9979 41.9628 95.3725 42.1017 94.7934 42.3797C94.2143 42.6577 93.7047 43.0399 93.2646 43.5263C92.8476 44.0128 92.5117 44.5919 92.2569 45.2636C92.0253 45.9354 91.9095 46.665 91.9095 47.4526ZM112.911 56.8687C112.031 56.8687 111.209 56.7297 110.444 56.4517C109.68 56.1506 109.02 55.7453 108.464 55.2356C107.908 54.7029 107.468 54.089 107.144 53.3941C106.842 52.6992 106.692 51.9348 106.692 51.1009C106.692 50.2438 106.877 49.4563 107.248 48.7382C107.642 47.9969 108.174 47.3715 108.846 46.8619C109.541 46.3523 110.363 45.9585 111.313 45.6806C112.263 45.3794 113.305 45.2289 114.44 45.2289C115.251 45.2289 116.038 45.2984 116.803 45.4373C117.59 45.5763 118.285 45.7732 118.888 46.028V44.9856C118.888 43.7811 118.54 42.8546 117.845 42.206C117.174 41.5574 116.166 41.2331 114.822 41.2331C113.85 41.2331 112.9 41.4068 111.973 41.7543C111.047 42.1017 110.097 42.6114 109.124 43.2831L107.7 40.3297C110.039 38.7777 112.564 38.0017 115.274 38.0017C117.892 38.0017 119.918 38.6503 121.355 39.9475C122.814 41.2215 123.544 43.0746 123.544 45.5068V51.1704C123.544 51.6568 123.625 52.0043 123.787 52.2128C123.972 52.4212 124.262 52.5371 124.655 52.5602V56.5212C123.868 56.6834 123.185 56.7645 122.605 56.7645C121.725 56.7645 121.042 56.5676 120.555 56.1738C120.092 55.78 119.803 55.2588 119.687 54.6102L119.583 53.6026C118.772 54.6681 117.787 55.4789 116.629 56.0348C115.471 56.5907 114.232 56.8687 112.911 56.8687ZM114.232 53.4636C115.019 53.4636 115.761 53.3246 116.455 53.0467C117.174 52.7687 117.729 52.3981 118.123 51.9348C118.633 51.541 118.888 51.1009 118.888 50.6145V48.5297C118.332 48.3212 117.729 48.1591 117.081 48.0433C116.432 47.9043 115.807 47.8348 115.205 47.8348C114 47.8348 113.016 48.1128 112.251 48.6687C111.487 49.2015 111.105 49.8848 111.105 50.7187C111.105 51.5063 111.406 52.1664 112.008 52.6992C112.61 53.2088 113.351 53.4636 114.232 53.4636ZM125.358 47.4178C125.358 46.1438 125.578 44.9393 126.018 43.8043C126.458 42.6693 127.095 41.6732 127.929 40.8162C128.763 39.9591 129.771 39.2758 130.952 38.7662C132.133 38.2565 133.465 38.0017 134.948 38.0017C136.94 38.0017 138.631 38.4303 140.021 39.2873C141.434 40.1444 142.488 41.2679 143.183 42.6577L138.631 44.0475C138.237 43.3758 137.716 42.8662 137.067 42.5187C136.419 42.1481 135.701 41.9628 134.913 41.9628C134.241 41.9628 133.616 42.1017 133.037 42.3797C132.458 42.6345 131.948 43.0051 131.508 43.4916C131.091 43.9549 130.755 44.5224 130.5 45.1941C130.269 45.8659 130.153 46.6071 130.153 47.4178C130.153 48.2286 130.28 48.9698 130.535 49.6416C130.79 50.3133 131.126 50.8924 131.543 51.3789C131.983 51.8653 132.492 52.2475 133.072 52.5255C133.651 52.7803 134.264 52.9077 134.913 52.9077C135.747 52.9077 136.511 52.6992 137.206 52.2823C137.924 51.8653 138.422 51.3557 138.7 50.7534L143.252 52.1433C142.627 53.5331 141.596 54.6681 140.16 55.5484C138.723 56.4286 136.998 56.8687 134.983 56.8687C133.5 56.8687 132.168 56.6139 130.987 56.1043C129.805 55.5947 128.798 54.9114 127.964 54.0543C127.13 53.1741 126.481 52.1664 126.018 51.0314C125.578 49.8732 125.358 48.6687 125.358 47.4178ZM161.648 56.5212H156.992V46.306C156.992 44.8698 156.726 43.8159 156.193 43.1441C155.66 42.4492 154.908 42.1017 153.935 42.1017C153.518 42.1017 153.078 42.1944 152.614 42.3797C152.151 42.565 151.711 42.8314 151.294 43.1789C150.877 43.5032 150.495 43.8969 150.147 44.3602C149.8 44.8235 149.545 45.3331 149.383 45.889V56.5212H144.727V31.1568H149.383V41.6848C150.055 40.5034 150.958 39.6001 152.093 38.9746C153.251 38.326 154.525 38.0017 155.915 38.0017C157.097 38.0017 158.058 38.2102 158.799 38.6272C159.54 39.021 160.119 39.5537 160.536 40.2255C160.953 40.8972 161.243 41.6616 161.405 42.5187C161.567 43.3758 161.648 44.256 161.648 45.1594V56.5212Z" fill="#FFBA23"/>
<path d="M55.7285 8.22928L56.0903 8.33265C56.2109 8.33265 56.3573 8.24651 56.5296 8.07424C56.7019 7.88474 56.8483 7.78999 56.9689 7.78999C57.1067 7.78999 57.2962 7.86751 57.5374 8.02256C57.7786 8.16037 57.8991 8.28958 57.8991 8.41017C57.8991 8.6858 57.2704 9.59024 56.0128 11.1235C54.7552 12.6395 53.377 14.2674 51.8782 16.0074C50.3795 17.7473 49.0013 19.5045 47.7437 21.2789C46.4861 23.0361 45.8573 24.2592 45.8573 24.9483C45.8573 26.1198 45.9434 27.0156 46.1157 27.6358L46.1932 27.8942C46.1932 28.0148 46.0468 28.0751 45.7539 28.0751C45.4611 28.0751 45.2285 28.0492 45.0562 27.9975C44.9012 27.9631 44.7117 27.8769 44.4877 27.7391C44.0743 27.4635 43.7814 26.7313 43.6092 25.5427C43.6092 24.9742 43.6608 24.4487 43.7642 23.9664C43.8676 23.4668 44.1087 22.8724 44.4877 22.1833C44.884 21.4943 45.263 20.8741 45.6247 20.3228C46.0037 19.7715 46.6584 18.936 47.5886 17.8162C48.8118 16.3519 50.1813 14.7756 51.6973 13.0874C53.2133 11.3819 54.0402 10.4516 54.1781 10.2966C54.3331 10.1243 54.4106 10.0209 54.4106 9.98646C54.4106 9.95201 53.9197 10.3741 52.9377 11.2527C51.973 12.114 50.2933 13.6645 47.8987 15.904C45.5214 18.1436 44.0484 19.5993 43.4799 20.2711C41.2232 22.8552 39.8364 24.5349 39.3196 25.3101C39.2334 25.534 39.0784 25.646 38.8544 25.646C38.6477 25.646 38.4582 25.4996 38.2859 25.2067C37.9931 24.7071 37.8466 24.0783 37.8466 23.3203C38.1912 22.0628 38.863 20.4778 39.8622 18.5656C40.8614 16.6362 41.9726 14.7412 43.1957 12.8806L44.4102 11.3043C44.5308 11.1148 44.5911 10.9943 44.5911 10.9426L44.5653 10.9167C44.548 10.9167 43.8848 11.623 42.5755 13.0357C41.2662 14.4483 40.491 15.2925 40.2498 15.5681L34.7199 21.6148C32.532 24.0094 30.9557 25.4565 29.991 25.9561C28.32 26.5074 27.3122 26.8175 26.9676 26.8864C26.7781 26.8864 26.6834 26.8519 26.6834 26.783C26.6834 26.7141 26.7695 26.6021 26.9418 26.4471C29.457 23.8802 31.0333 22.2867 31.6707 21.6665C31.8085 21.5804 32.9369 20.5037 35.0558 18.4364C37.1748 16.3519 39.4402 14.1985 41.852 11.9762C44.281 9.75389 46.0037 8.3671 47.0201 7.81583C47.692 7.6091 48.1916 7.50574 48.5189 7.50574C48.8635 7.50574 49.0357 7.60049 49.0357 7.78999C49.0357 7.91058 48.9582 8.0484 48.8032 8.20344C46.2019 11.9245 44.6772 14.276 44.2293 15.258L42.653 18.2297C42.6014 18.3503 42.5755 18.4364 42.5755 18.4881C42.5755 18.5915 42.5927 18.6259 42.6272 18.5915C43.9882 17.4889 45.7712 15.9385 47.9763 13.9401C50.1986 11.9418 51.8955 10.4947 53.0669 9.59885C54.2384 8.6858 55.1256 8.22928 55.7285 8.22928ZM60.5606 16.6534C61.3702 16.7395 61.7751 16.9204 61.7751 17.1961C61.7751 17.3167 61.7062 17.4545 61.5683 17.6095C59.1393 20.3142 56.3485 23.7596 53.1959 27.9459C52.2829 29.1862 51.3526 30.3577 50.4051 31.4602C49.4576 32.5628 48.5704 33.3638 47.7435 33.8634C46.9166 34.3802 46.0552 34.6386 45.1594 34.6386C44.7115 34.6386 44.3153 34.518 43.9707 34.2769C43.6262 34.0357 43.4539 33.7084 43.4539 33.2949C43.4539 32.3302 43.919 31.331 44.8493 30.2974C45.7796 29.2637 46.8218 28.4196 47.9761 27.765C49.1303 27.1276 50.1295 26.7572 50.9736 26.6538L51.5163 26.7313C51.6885 26.7141 52.3173 26.0509 53.4026 24.7416C54.5052 23.4323 55.0564 22.7432 55.0564 22.6743C55.0737 22.5882 55.0651 22.5451 55.0306 22.5451L54.5396 22.9327C53.2476 24.1386 52.2398 24.7416 51.5163 24.7416C51.0511 24.7416 50.8185 24.4143 50.8185 23.7596C50.8185 22.881 51.5335 21.4943 52.9633 19.5993C54.3932 17.7043 55.4441 16.7568 56.1159 16.7568C56.1676 16.7568 56.2279 16.774 56.2968 16.8084C56.7792 16.929 57.0204 17.1013 57.0204 17.3253C57.0204 17.4114 56.9945 17.4803 56.9428 17.532C56.9084 17.5664 56.7361 17.7301 56.426 18.023C56.1332 18.3158 55.8403 18.6259 55.5474 18.9532C55.2546 19.2633 54.9445 19.6079 54.6172 19.9869C53.8764 20.8482 53.506 21.4943 53.506 21.9249C53.506 22.0283 53.5577 22.08 53.661 22.08C53.7816 22.08 53.997 21.9852 54.3071 21.7957C56.7533 20.1247 58.6656 18.5312 60.0437 17.0152C60.1643 16.774 60.3366 16.6534 60.5606 16.6534ZM44.7976 33.5016C45.4006 33.3121 46.2103 32.7178 47.2267 31.7186C48.2431 30.7367 49.1131 29.8064 49.8366 28.9278L50.9219 27.5841C51.0253 27.4463 51.077 27.3601 51.077 27.3257C51.077 27.2912 51.0511 27.274 50.9994 27.274C50.4482 27.274 49.6643 27.6961 48.6479 28.5402C47.6143 29.3843 46.7012 30.306 45.9088 31.3052C45.0991 32.3043 44.6943 33.0107 44.6943 33.4241C44.6943 33.4758 44.7287 33.5016 44.7976 33.5016ZM85.9906 8.46185C86.7314 8.8753 87.3343 9.43519 87.7994 10.1415C88.2818 10.8478 88.523 11.6403 88.523 12.5189C88.523 13.3975 87.9717 14.4052 86.8692 15.5422C85.7666 16.6792 84.4229 17.6526 82.838 18.4623C81.2703 19.2547 79.9008 19.6509 78.7293 19.6509C77.5751 19.6509 76.7396 19.1686 76.2227 18.2039C73.2597 22.1833 71.5886 24.5952 71.2096 25.4393C71.2268 25.5254 71.2355 25.646 71.2355 25.8011C71.2355 25.9733 71.1407 26.0595 70.9512 26.0595C70.7617 26.0595 70.5119 25.8958 70.2018 25.5685C69.909 25.2584 69.7625 24.8105 69.7625 24.2248C69.7625 24.0525 69.7711 23.9147 69.7884 23.8113C69.9434 22.6743 71.5197 20.4348 74.5172 17.0927C77.532 13.7506 79.7026 11.7178 81.0291 10.9943C81.3048 10.8564 81.5115 10.7875 81.6493 10.7875C81.7871 10.7875 81.925 10.8306 82.0628 10.9167C82.2178 11.0029 82.2953 11.1062 82.2953 11.2268C82.2953 11.3474 82.2609 11.4422 82.192 11.5111C80.8999 12.8548 80.1247 13.6731 79.8663 13.966L76.7912 17.532C76.7568 17.5837 76.7396 17.6354 76.7396 17.687C76.7396 17.8076 76.8171 17.8679 76.9721 17.8679C77.6612 17.8679 78.5915 17.6698 79.7629 17.2736C80.9516 16.8774 82.1231 16.3864 83.2773 15.8007C84.4315 15.1977 85.4307 14.5 86.2748 13.7075C87.119 12.8979 87.541 12.1485 87.541 11.4594C87.541 10.8909 86.9984 10.4688 85.9131 10.1932C84.8277 9.91755 83.6563 9.77973 82.3987 9.77973C81.1583 9.77973 79.8146 9.96062 78.3675 10.3224C76.9204 10.6669 75.6542 11.0976 74.5689 11.6144C73.5008 12.1313 72.5361 12.6739 71.6747 13.2424C70.8134 13.7937 70.1587 14.2847 69.7108 14.7153C69.2802 15.1288 69.0648 15.4044 69.0648 15.5422C69.0648 15.6628 69.1251 15.7231 69.2457 15.7231C69.3663 15.7231 69.6936 15.637 70.2277 15.4647C71.9504 14.8962 73.6387 14.1296 75.2925 13.1649C75.4131 13.096 75.4906 13.0615 75.525 13.0615C75.5767 13.0615 75.6026 13.0874 75.6026 13.139C75.6026 13.1735 75.4906 13.3372 75.2666 13.63C75.0599 13.9057 74.767 14.2502 74.388 14.6637C74.009 15.0599 73.5956 15.4475 73.1477 15.8265C72.6998 16.2055 72.1916 16.5328 71.6231 16.8084C71.0718 17.0669 70.5291 17.1961 69.9951 17.1961C69.4783 17.1961 68.9615 16.9893 68.4446 16.5759C67.945 16.1452 67.6953 15.5681 67.6953 14.8445C67.6953 14.1038 68.057 13.3027 68.7806 12.4413C69.5041 11.58 70.4516 10.7617 71.6231 9.98646C72.8117 9.21124 74.2847 8.5566 76.0419 8.02256C77.799 7.48851 79.5131 7.22149 81.1842 7.22149C82.8552 7.22149 84.4574 7.63494 85.9906 8.46185ZM86.0197 23.863C86.5709 23.863 87.2514 23.5012 88.0611 22.7777C88.8708 22.0541 89.2928 21.5546 89.3273 21.2789C89.1206 21.1066 88.8966 20.7966 88.6554 20.3486C88.4315 19.8835 88.3109 19.6509 88.2936 19.6509C87.7596 20.1505 87.2859 20.7276 86.8724 21.3823C86.2178 22.4848 85.8904 23.2428 85.8904 23.6563C85.8904 23.7941 85.9335 23.863 86.0197 23.863ZM91.6013 17.532C91.429 17.532 91.0672 17.799 90.516 18.3331C89.9819 18.8671 89.7149 19.2375 89.7149 19.4442C89.7149 19.4959 89.7666 19.5993 89.8699 19.7543C89.9733 19.9094 90.0508 19.9869 90.1025 19.9869C90.3954 19.9869 90.7227 19.6337 91.0845 18.9274C91.4635 18.2211 91.653 17.8162 91.653 17.7129C91.653 17.5923 91.6357 17.532 91.6013 17.532ZM91.653 20.8655C92.1353 20.8655 92.8847 20.5726 93.9011 19.9869C94.9347 19.4011 95.8392 18.8154 96.6144 18.2297L97.7772 17.3253C97.9323 17.4459 98.0098 17.5923 98.0098 17.7646C98.0098 17.9368 97.9323 18.0919 97.7772 18.2297C94.9347 20.8655 92.7813 22.1833 91.317 22.1833C91.2137 22.1833 91.0586 22.1661 90.8519 22.1317C88.9052 24.3884 87.2342 25.5168 85.8388 25.5168C84.9085 25.379 84.3228 25.0517 84.0816 24.5349C83.9438 24.2765 83.8749 23.9491 83.8749 23.5529C83.8749 22.4159 84.5295 21.0636 85.8388 19.4959C87.148 17.911 88.7932 16.7482 90.7744 16.0074C90.9466 16.0074 91.0758 16.0504 91.162 16.1366C91.2481 16.2055 91.3256 16.2486 91.3945 16.2658C91.4635 16.2658 91.5496 16.2313 91.653 16.1624C91.7735 16.0763 91.9286 16.0332 92.1181 16.0332C92.3076 16.016 92.5057 16.1194 92.7124 16.3433C92.9881 16.5673 93.1259 16.8429 93.1259 17.1702C93.1259 18.1349 92.6349 19.3667 91.653 20.8655ZM105.171 17.0152C105.154 17.6354 104.766 18.2469 104.008 18.8499C103.267 19.4528 102.363 19.7543 101.295 19.7543C100.847 19.7543 100.623 19.6251 100.623 19.3667C100.623 19.2633 100.7 19.1858 100.856 19.1341C101.889 18.5312 102.544 18.0402 102.819 17.6612C102.854 17.5923 102.871 17.5148 102.871 17.4286C102.871 17.3425 102.828 17.2994 102.742 17.2994C101.278 17.5062 99.8822 18.3072 98.5557 19.7026C97.2292 21.098 96.5659 22.1833 96.5659 22.9586C96.5659 23.3203 96.7038 23.5012 96.9794 23.5012C98.2542 23.5012 99.5979 23.1308 101.011 22.3901C102.423 21.6493 104.525 20.2884 107.316 18.3072C107.505 18.1694 107.789 17.9627 108.168 17.687C108.565 17.4114 108.797 17.2477 108.866 17.1961C109.021 17.3167 109.099 17.4631 109.099 17.6354C109.099 17.8076 109.021 17.9627 108.866 18.1005C108.005 18.9619 106.885 19.9266 105.507 20.9947C104.146 22.0628 102.578 23.0792 100.804 24.0439C99.0294 24.9914 97.5824 25.4651 96.4626 25.4651C95.1361 25.4651 94.4728 24.7588 94.4728 23.3462C94.4728 22.3642 94.8002 21.4081 95.4548 20.4778C96.1094 19.5304 96.9105 18.7379 97.858 18.1005C98.8055 17.4631 99.7961 16.9549 100.83 16.5759C101.863 16.1797 102.69 15.9815 103.31 15.9815C103.948 15.9815 104.404 16.0677 104.68 16.2399C104.956 16.4122 105.102 16.5845 105.119 16.7568L105.171 17.0152ZM118.294 9.28876C118.742 9.28876 119.001 9.39212 119.07 9.59885C119.07 9.66776 118.639 10.1587 117.778 11.0718C116.934 11.9676 115.762 13.208 114.263 14.7929C112.782 16.3605 111.507 17.7559 110.439 18.9791C110.37 19.0308 110.335 19.0997 110.335 19.1858C110.335 19.2719 110.353 19.315 110.387 19.315C110.439 19.315 110.499 19.2806 110.568 19.2116L111.55 18.4364C112.256 17.9885 113.032 17.5923 113.876 17.2477C114.737 16.9032 115.452 16.7309 116.02 16.7309C116.365 16.8343 116.684 17.0755 116.977 17.4545C117.132 17.6095 117.209 17.7904 117.209 17.9971C117.209 18.6173 116.443 19.4098 114.909 20.3745C113.393 21.3392 111.998 21.9163 110.723 22.1058C110.706 22.1231 110.697 22.1403 110.697 22.1575C110.697 22.2953 111.102 22.7863 111.912 23.6304C112.739 24.4573 113.376 25 113.824 25.2584C114.186 25.4307 114.418 25.5168 114.522 25.5168C114.591 25.5513 114.625 25.5943 114.625 25.646C114.625 25.6977 114.573 25.7666 114.47 25.8527C114.074 26.1801 113.669 26.3437 113.256 26.3437C112.842 26.3437 112.558 26.3265 112.403 26.292C112.265 26.2576 112.127 26.2145 111.989 26.1628C111.851 26.1112 111.679 25.9733 111.472 25.7494C111.283 25.5427 111.085 25.3273 110.878 25.1034C110.689 24.8966 110.37 24.5349 109.922 24.018C109.474 23.484 109.009 22.9586 108.527 22.4418C108.458 22.3384 108.38 22.2867 108.294 22.2867C108.208 22.2867 108.122 22.3298 108.036 22.4159C106.968 23.2256 106.261 24.1214 105.917 25.1034C105.899 25.2584 105.796 25.3359 105.607 25.3359H105.581C104.874 25.3359 104.401 24.9569 104.16 24.1989C104.16 24.0267 104.237 23.7855 104.392 23.4754C105.874 21.2531 107.312 19.3753 108.708 17.8421C110.12 16.3089 112.627 13.8023 116.227 10.3224C116.572 10.0468 116.796 9.86587 116.899 9.77973C117.002 9.6936 117.106 9.61608 117.209 9.54717C117.33 9.46103 117.424 9.40935 117.493 9.39212C117.631 9.32321 117.803 9.28876 118.01 9.28876H118.294ZM114.703 18.1263C114.358 18.1436 113.781 18.3847 112.971 18.8499C112.179 19.315 111.464 19.7801 110.826 20.2453L109.896 20.9171C109.827 20.9861 109.793 21.0463 109.793 21.098C109.793 21.1325 109.819 21.1497 109.87 21.1497C110.284 21.1497 111.205 20.719 112.635 19.8577C114.065 18.9791 114.78 18.4364 114.78 18.2297L114.703 18.1263ZM124.899 17.1961C124.451 17.1961 123.693 17.6612 122.625 18.5915C121.557 19.5045 121.023 20.0644 121.023 20.2711C121.023 20.3056 121.049 20.3228 121.1 20.3228C121.479 20.3228 122.229 19.9007 123.348 19.0566C124.485 18.2125 125.054 17.6354 125.054 17.3253C125.054 17.2391 125.002 17.1961 124.899 17.1961ZM119.395 25.4651C118.068 25.4651 117.405 24.6555 117.405 23.0361C117.405 22.0197 117.844 20.943 118.723 19.806C119.619 18.6518 120.67 17.7129 121.875 16.9893C123.081 16.2486 124.149 15.8782 125.08 15.8782C125.493 15.8782 125.872 16.0418 126.217 16.3692C126.578 16.6965 126.759 17.0152 126.759 17.3253C126.759 17.8938 126.355 18.5398 125.545 19.2633C124.735 19.9696 123.882 20.5468 122.987 20.9947C122.108 21.4253 121.522 21.6407 121.229 21.6407C120.954 21.6407 120.747 21.5115 120.609 21.2531C120.54 21.2014 120.446 21.1756 120.325 21.1756C120.204 21.1756 120.006 21.4081 119.731 21.8733C119.455 22.3212 119.317 22.6916 119.317 22.9844C119.317 23.26 119.421 23.4323 119.627 23.5012C120.937 23.5012 122.358 23.1222 123.891 22.3642C125.424 21.589 127.543 20.2367 130.248 18.3072C130.437 18.1694 130.722 17.9627 131.101 17.687C131.497 17.4114 131.729 17.2477 131.798 17.1961C131.953 17.3167 132.031 17.4631 132.031 17.6354C132.031 17.8076 131.953 17.9627 131.798 18.1005C130.937 18.9619 129.817 19.9266 128.439 20.9947C127.078 22.0628 125.51 23.0792 123.736 24.0439C121.962 24.9914 120.515 25.4651 119.395 25.4651ZM139.454 13.0615L140.772 13.0357C142.477 13.0357 143.718 13.2769 144.493 13.7592C144.872 13.8798 145.061 14.0349 145.061 14.2244C145.061 14.3622 144.889 14.4569 144.545 14.5086C144.217 14.5603 143.054 14.6981 141.056 14.9221C139.075 15.1288 137.714 15.2494 136.973 15.2838C136.646 15.3011 135.888 15.8696 134.699 16.9893C133.528 18.1091 132.408 19.3409 131.34 20.6846C130.272 22.0283 129.738 22.9672 129.738 23.5012C129.738 23.5874 129.781 23.6649 129.867 23.7338C129.953 23.7855 130.056 23.8113 130.177 23.8113C130.315 23.8113 130.522 23.7596 130.797 23.6563C134.07 21.7268 137.249 19.6165 140.332 17.3253C140.488 17.4459 140.565 17.5923 140.565 17.7646C140.565 17.9368 140.479 18.1091 140.307 18.2814C140.134 18.4364 139.876 18.669 139.531 18.9791C139.204 19.2892 138.584 19.8491 137.671 20.6587C136.758 21.4684 135.896 22.192 135.087 22.8294C132.916 24.5865 131.4 25.603 130.539 25.8786C130.229 25.9647 129.858 26.0078 129.428 26.0078C129.014 26.0078 128.627 25.7925 128.265 25.3618C127.92 24.9311 127.748 24.3454 127.748 23.6046C127.748 22.8638 128.222 21.7957 129.169 20.4003C130.134 19.0049 131.443 17.5751 133.097 16.1107C133.252 15.9902 133.33 15.8782 133.33 15.7748C133.33 15.6715 133.149 15.6198 132.787 15.6198L131.159 15.6714C128.868 15.6714 127.688 15.413 127.619 14.8962C127.085 14.7929 126.818 14.6378 126.818 14.4311C126.818 14.3622 126.852 14.3277 126.921 14.3277C126.99 14.3105 127.05 14.3019 127.102 14.3019C127.154 14.2847 127.24 14.2674 127.36 14.2502C127.481 14.233 128.428 14.0952 130.203 13.8367C131.995 13.5783 134.027 13.363 136.301 13.1907L138.084 10.8134C138.188 10.6066 138.549 10.5033 139.17 10.5033C139.79 10.5033 140.1 10.6325 140.1 10.8909C140.1 10.977 140.031 11.1321 139.893 11.356L139.247 12.2605C139.161 12.5361 139.109 12.7428 139.092 12.8806C139.092 13.0012 139.213 13.0615 139.454 13.0615Z" fill="white"/>
</svg>
