<svg width="111" height="43" viewBox="0 0 111 43" fill="none" xmlns="http://www.w3.org/2000/svg">
<path d="M1.96759 37.4443V20.9005H5.18316V34.6249H13.6182V37.4443H1.96759ZM14.3402 37.4443V25.2345H17.4625V37.4443H14.3402ZM14.3402 23.5335V20.4344H17.4625V23.5335H14.3402ZM20.0929 37.4443V28.2636H18.4851V25.8869H20.0929V25.1413C20.0929 23.6189 20.4579 22.415 21.188 21.5296C21.9181 20.6441 22.9123 20.2014 24.1706 20.2014C25.1648 20.2014 26.1667 20.4422 27.1764 20.9238L26.5473 23.2772C26.3143 23.1529 26.0347 23.0519 25.7085 22.9743C25.3978 22.8811 25.1104 22.8345 24.8463 22.8345C23.7589 22.8345 23.2152 23.5646 23.2152 25.0248V25.8869H26.1978V28.2636H23.2152V37.4443H20.0929ZM32.0872 37.6773C31.1085 37.6773 30.2231 37.5142 29.4308 37.188C28.6386 36.8463 27.9628 36.388 27.4036 35.8132C26.8444 35.2385 26.4094 34.5705 26.0987 33.8093C25.8036 33.0482 25.656 32.2482 25.656 31.4093C25.656 30.5394 25.8036 29.7239 26.0987 28.9627C26.3939 28.186 26.8211 27.5102 27.3803 26.9355C27.9395 26.3452 28.6153 25.8792 29.4075 25.5374C30.2153 25.1957 31.1163 25.0248 32.1105 25.0248C33.1047 25.0248 33.9901 25.1957 34.7668 25.5374C35.559 25.8792 36.227 26.3374 36.7707 26.9122C37.3299 27.4869 37.7494 28.1549 38.029 28.9161C38.3241 29.6773 38.4717 30.4695 38.4717 31.2928C38.4717 31.4948 38.4639 31.6889 38.4484 31.8753C38.4484 32.0617 38.4329 32.2171 38.4018 32.3414H28.9648C29.0114 32.8229 29.1279 33.2501 29.3143 33.6229C29.5007 33.9958 29.7415 34.3142 30.0367 34.5783C30.3318 34.8424 30.6658 35.0443 31.0386 35.1841C31.4114 35.3239 31.7998 35.3938 32.2037 35.3938C32.825 35.3938 33.4076 35.2463 33.9513 34.9511C34.5105 34.6404 34.8911 34.2365 35.093 33.7394L37.7727 34.4851C37.3222 35.4171 36.5998 36.1861 35.6057 36.7919C34.627 37.3822 33.4542 37.6773 32.0872 37.6773ZM35.2561 30.3142C35.1785 29.3976 34.8367 28.6675 34.2309 28.1238C33.6406 27.5646 32.9182 27.285 32.0639 27.285C31.6444 27.285 31.2483 27.3627 30.8755 27.518C30.5182 27.6578 30.1998 27.8598 29.9201 28.1238C29.6405 28.3879 29.4075 28.7064 29.2211 29.0792C29.0502 29.452 28.9493 29.8637 28.9182 30.3142H35.2561ZM43.4085 29.0559C43.4085 28.0462 43.5871 27.052 43.9444 26.0733C44.3172 25.0791 44.8531 24.1937 45.5522 23.417C46.2512 22.6403 47.1056 22.0111 48.1153 21.5296C49.125 21.048 50.2746 20.8073 51.5639 20.8073C53.0863 20.8073 54.3989 21.1412 55.5018 21.8092C56.6203 22.4772 57.4514 23.3471 57.995 24.4189L55.5251 26.1199C55.3076 25.6539 55.0436 25.2656 54.7329 24.9549C54.4222 24.6287 54.0882 24.3723 53.7309 24.1859C53.3736 23.9995 53.0008 23.8675 52.6125 23.7898C52.2241 23.6966 51.8435 23.65 51.4707 23.65C50.6629 23.65 49.9561 23.8131 49.3503 24.1393C48.76 24.4655 48.2629 24.8927 47.859 25.4209C47.4707 25.9335 47.1755 26.5238 46.9736 27.1918C46.7716 27.8442 46.6706 28.4967 46.6706 29.1491C46.6706 29.8792 46.7872 30.586 47.0202 31.2695C47.2532 31.9375 47.5794 32.5278 47.9988 33.0404C48.4338 33.553 48.9464 33.9647 49.5367 34.2754C50.1425 34.5861 50.8027 34.7414 51.5173 34.7414C51.8901 34.7414 52.2785 34.6948 52.6824 34.6016C53.0863 34.5084 53.4668 34.3608 53.8241 34.1589C54.1969 33.9569 54.5387 33.7006 54.8494 33.3899C55.1601 33.0637 55.4086 32.6753 55.595 32.2249L58.2281 33.7394C57.964 34.3608 57.5834 34.9123 57.0863 35.3938C56.6047 35.8599 56.0533 36.256 55.4319 36.5822C54.8261 36.9084 54.1736 37.157 53.4746 37.3278C52.7756 37.4987 52.0921 37.5841 51.4241 37.5841C50.2435 37.5841 49.1639 37.3356 48.1852 36.8385C47.2066 36.3414 46.36 35.6967 45.6454 34.9045C44.9464 34.0967 44.3949 33.188 43.991 32.1783C43.6026 31.153 43.4085 30.1122 43.4085 29.0559ZM64.7884 37.6773C63.7943 37.6773 62.901 37.5065 62.1088 37.1647C61.3166 36.823 60.6408 36.3647 60.0816 35.7899C59.5379 35.1997 59.1185 34.5239 58.8233 33.7627C58.5282 33.0016 58.3806 32.2016 58.3806 31.3627C58.3806 30.5083 58.5282 29.7006 58.8233 28.9394C59.1185 28.1782 59.5379 27.5102 60.0816 26.9355C60.6408 26.3452 61.3166 25.8792 62.1088 25.5374C62.901 25.1957 63.7943 25.0248 64.7884 25.0248C65.7826 25.0248 66.6681 25.1957 67.4448 25.5374C68.237 25.8792 68.905 26.3452 69.4487 26.9355C70.0079 27.5102 70.4351 28.1782 70.7303 28.9394C71.0254 29.7006 71.173 30.5083 71.173 31.3627C71.173 32.2016 71.0254 33.0016 70.7303 33.7627C70.4351 34.5239 70.0157 35.1997 69.472 35.7899C68.9283 36.3647 68.2603 36.823 67.4681 37.1647C66.6758 37.5065 65.7826 37.6773 64.7884 37.6773ZM61.5962 31.3627C61.5962 31.9064 61.6738 32.4035 61.8292 32.854C62.0001 33.2889 62.2253 33.6695 62.5049 33.9958C62.8001 34.322 63.1418 34.5783 63.5302 34.7647C63.9185 34.9356 64.338 35.021 64.7884 35.021C65.2389 35.021 65.6584 34.9356 66.0467 34.7647C66.4351 34.5783 66.7691 34.322 67.0487 33.9958C67.3438 33.6695 67.5691 33.2812 67.7244 32.8307C67.8953 32.3802 67.9807 31.8831 67.9807 31.3394C67.9807 30.8113 67.8953 30.3219 67.7244 29.8714C67.5691 29.4209 67.3438 29.0326 67.0487 28.7064C66.7691 28.3802 66.4351 28.1316 66.0467 27.9607C65.6584 27.7743 65.2389 27.6811 64.7884 27.6811C64.338 27.6811 63.9185 27.7743 63.5302 27.9607C63.1418 28.1471 62.8001 28.4035 62.5049 28.7297C62.2253 29.0559 62.0001 29.4442 61.8292 29.8947C61.6738 30.3452 61.5962 30.8346 61.5962 31.3627ZM75.6805 37.6773C75.0902 37.6773 74.5387 37.5841 74.0261 37.3977C73.5135 37.1958 73.0708 36.9239 72.6979 36.5822C72.3251 36.2249 72.03 35.8132 71.8125 35.3472C71.6106 34.8812 71.5096 34.3686 71.5096 33.8093C71.5096 33.2346 71.6339 32.7064 71.8824 32.2249C72.1465 31.7278 72.5038 31.3083 72.9543 30.9666C73.4203 30.6248 73.9717 30.3608 74.6086 30.1743C75.2455 29.9724 75.9446 29.8714 76.7058 29.8714C77.2495 29.8714 77.7776 29.918 78.2902 30.0112C78.8184 30.1044 79.2844 30.2365 79.6883 30.4074V29.7083C79.6883 28.9005 79.4553 28.2792 78.9893 27.8442C78.5388 27.4093 77.863 27.1918 76.9621 27.1918C76.3096 27.1918 75.6727 27.3083 75.0514 27.5413C74.43 27.7743 73.7931 28.1161 73.1407 28.5666L72.1853 26.586C73.7543 25.5452 75.4475 25.0248 77.265 25.0248C79.0203 25.0248 80.3796 25.4597 81.3427 26.3296C82.3214 27.184 82.8107 28.4268 82.8107 30.0578V33.8559C82.8107 34.1822 82.865 34.4152 82.9738 34.555C83.0981 34.6948 83.2922 34.7725 83.5563 34.788V37.4443C83.0282 37.5531 82.5699 37.6074 82.1815 37.6074C81.5912 37.6074 81.133 37.4754 80.8068 37.2113C80.4961 36.9472 80.3019 36.5977 80.2242 36.1628L80.1543 35.487C79.6106 36.2016 78.9504 36.7453 78.1737 37.1181C77.397 37.4909 76.5659 37.6773 75.6805 37.6773ZM76.5659 35.3938C77.0941 35.3938 77.5912 35.3006 78.0572 35.1142C78.5388 34.9278 78.9116 34.6793 79.1757 34.3686C79.5174 34.1045 79.6883 33.8093 79.6883 33.4831V32.0851C79.3155 31.9452 78.9116 31.8365 78.4766 31.7588C78.0417 31.6656 77.6223 31.619 77.2184 31.619C76.4106 31.619 75.7504 31.8054 75.2378 32.1783C74.7251 32.5355 74.4688 32.9938 74.4688 33.553C74.4688 34.0812 74.6708 34.5239 75.0747 34.8812C75.4786 35.223 75.9756 35.3938 76.5659 35.3938ZM84.0274 31.3394C84.0274 30.485 84.175 29.6773 84.4702 28.9161C84.7653 28.1549 85.1925 27.4869 85.7517 26.9122C86.311 26.3374 86.9867 25.8792 87.7789 25.5374C88.5712 25.1957 89.4644 25.0248 90.4586 25.0248C91.7945 25.0248 92.9285 25.3122 93.8606 25.8869C94.8081 26.4617 95.515 27.2151 95.981 28.1471L92.9285 29.0792C92.6644 28.6287 92.3149 28.2869 91.88 28.0539C91.445 27.8054 90.9634 27.6811 90.4353 27.6811C89.9848 27.6811 89.5654 27.7743 89.177 27.9607C88.7887 28.1316 88.4469 28.3802 88.1518 28.7064C87.8721 29.0171 87.6469 29.3976 87.476 29.8481C87.3207 30.2986 87.243 30.7957 87.243 31.3394C87.243 31.8831 87.3285 32.3802 87.4993 32.8307C87.6702 33.2812 87.8954 33.6695 88.1751 33.9958C88.4702 34.322 88.812 34.5783 89.2003 34.7647C89.5887 34.9356 90.0003 35.021 90.4353 35.021C90.9945 35.021 91.5071 34.8812 91.9732 34.6016C92.4547 34.322 92.7887 33.9802 92.9751 33.5763L96.0276 34.5084C95.6082 35.4404 94.9169 36.2016 93.9538 36.7919C92.9907 37.3822 91.8334 37.6773 90.4819 37.6773C89.4877 37.6773 88.5945 37.5065 87.8022 37.1647C87.01 36.823 86.3343 36.3647 85.775 35.7899C85.2158 35.1997 84.7808 34.5239 84.4702 33.7627C84.175 32.986 84.0274 32.1783 84.0274 31.3394ZM108.364 37.4443H105.242V30.5938C105.242 29.6307 105.063 28.9238 104.706 28.4734C104.349 28.0073 103.844 27.7743 103.192 27.7743C102.912 27.7743 102.617 27.8365 102.306 27.9607C101.995 28.085 101.7 28.2636 101.421 28.4967C101.141 28.7141 100.885 28.9782 100.652 29.2889C100.419 29.5996 100.248 29.9413 100.139 30.3142V37.4443H97.0168V20.4344H100.139V27.4947C100.59 26.7025 101.195 26.0966 101.957 25.6772C102.733 25.2423 103.588 25.0248 104.52 25.0248C105.312 25.0248 105.957 25.1646 106.454 25.4442C106.951 25.7083 107.339 26.0656 107.619 26.5161C107.898 26.9665 108.093 27.4792 108.201 28.0539C108.31 28.6287 108.364 29.219 108.364 29.8248V37.4443Z" fill="#FFBA23"/>
<path d="M37.4511 5.75321L37.6937 5.82252C37.7746 5.82252 37.8728 5.76476 37.9883 5.64923C38.1038 5.52215 38.202 5.45861 38.2829 5.45861C38.3753 5.45861 38.5024 5.51059 38.6641 5.61457C38.8259 5.70699 38.9068 5.79364 38.9068 5.87451C38.9068 6.05936 38.4851 6.66589 37.6417 7.6941C36.7983 8.71076 35.8741 9.80251 34.869 10.9694C33.8639 12.1362 32.9397 13.3146 32.0963 14.5046C31.2529 15.683 30.8312 16.5032 30.8312 16.9653C30.8312 17.7509 30.889 18.3517 31.0045 18.7676L31.0565 18.9409C31.0565 19.0218 30.9583 19.0622 30.7619 19.0622C30.5655 19.0622 30.4096 19.0449 30.294 19.0102C30.1901 18.9871 30.063 18.9293 29.9128 18.8369C29.6355 18.6521 29.4391 18.1611 29.3236 17.3639C29.3236 16.9827 29.3582 16.6303 29.4276 16.3068C29.4969 15.9718 29.6586 15.5732 29.9128 15.1111C30.1785 14.649 30.4327 14.2331 30.6753 13.8634C30.9294 13.4937 31.3685 12.9334 31.9923 12.1824C32.8126 11.2004 33.731 10.1433 34.7477 9.01114C35.7644 7.8674 36.3189 7.24354 36.4113 7.13956C36.5153 7.02403 36.5673 6.95471 36.5673 6.93161C36.5673 6.9085 36.238 7.19155 35.5795 7.78075C34.9325 8.3584 33.8061 9.39816 32.2003 10.9C30.606 12.4019 29.6182 13.3782 29.2369 13.8287C27.7235 15.5617 26.7935 16.6881 26.4469 17.208C26.3891 17.3581 26.2852 17.4332 26.135 17.4332C25.9963 17.4332 25.8693 17.335 25.7537 17.1386C25.5573 16.8036 25.4591 16.3819 25.4591 15.8736C25.6902 15.0302 26.1407 13.9674 26.8108 12.685C27.4809 11.391 28.2261 10.1202 29.0463 8.8725L29.8608 7.81541C29.9417 7.68832 29.9821 7.60745 29.9821 7.57279L29.9648 7.55547C29.9532 7.55547 29.5084 8.02914 28.6304 8.97648C27.7524 9.92382 27.2325 10.4899 27.0708 10.6748L23.3623 14.7298C21.895 16.3357 20.8379 17.3062 20.191 17.6412C19.0703 18.0109 18.3945 18.2188 18.1634 18.265C18.0364 18.265 17.9728 18.2419 17.9728 18.1957C17.9728 18.1495 18.0306 18.0744 18.1461 17.9704C19.8328 16.2491 20.8899 15.1804 21.3174 14.7645C21.4098 14.7067 22.1665 13.9847 23.5875 12.5983C25.0086 11.2004 26.5278 9.7563 28.1452 8.26597C29.7741 6.77564 30.9294 5.84563 31.6111 5.47594C32.0616 5.3373 32.3967 5.26798 32.6162 5.26798C32.8472 5.26798 32.9628 5.33152 32.9628 5.45861C32.9628 5.53948 32.9108 5.6319 32.8068 5.73588C31.0623 8.23131 30.0399 9.80829 29.7395 10.4668L28.6824 12.4597C28.6477 12.5406 28.6304 12.5983 28.6304 12.633C28.6304 12.7023 28.642 12.7254 28.6651 12.7023C29.5777 11.9629 30.7735 10.9231 32.2523 9.58301C33.7426 8.24287 34.8806 7.27242 35.6662 6.67167C36.4518 6.05936 37.0467 5.75321 37.4511 5.75321ZM40.6915 11.4026C41.2345 11.4604 41.506 11.5817 41.506 11.7665C41.506 11.8474 41.4598 11.9398 41.3674 12.0438C39.7384 13.8576 37.8669 16.1682 35.7527 18.9756C35.1404 19.8074 34.5165 20.593 33.8811 21.3324C33.2457 22.0717 32.6507 22.609 32.0962 22.944C31.5416 23.2906 30.964 23.4639 30.3632 23.4639C30.0628 23.4639 29.7971 23.383 29.5661 23.2213C29.335 23.0595 29.2195 22.84 29.2195 22.5627C29.2195 21.9158 29.5314 21.2457 30.1553 20.5525C30.7791 19.8594 31.4781 19.2933 32.2521 18.8542C33.0262 18.4268 33.6962 18.1784 34.2623 18.1091L34.6263 18.1611C34.7418 18.1495 35.1635 17.7047 35.8913 16.8267C36.6307 15.9487 37.0004 15.4866 37.0004 15.4404C37.0119 15.3826 37.0062 15.3537 36.9831 15.3537L36.6538 15.6136C35.7873 16.4224 35.1115 16.8267 34.6263 16.8267C34.3143 16.8267 34.1584 16.6072 34.1584 16.1682C34.1584 15.579 34.6378 14.649 35.5967 13.3782C36.5556 12.1073 37.2603 11.4719 37.7109 11.4719C37.7455 11.4719 37.786 11.4835 37.8322 11.5066C38.1557 11.5874 38.3174 11.703 38.3174 11.8532C38.3174 11.9109 38.3001 11.9571 38.2654 11.9918C38.2423 12.0149 38.1268 12.1247 37.9188 12.3211C37.7224 12.5175 37.526 12.7254 37.3296 12.9449C37.1332 13.1529 36.9253 13.3839 36.7058 13.6381C36.209 14.2157 35.9606 14.649 35.9606 14.9378C35.9606 15.0071 35.9953 15.0418 36.0646 15.0418C36.1455 15.0418 36.2899 14.9782 36.4978 14.8512C38.1383 13.7305 39.4207 12.6619 40.345 11.6452C40.4258 11.4835 40.5414 11.4026 40.6915 11.4026ZM30.1206 22.7014C30.525 22.5743 31.0679 22.1757 31.7496 21.5056C32.4312 20.8471 33.0146 20.2233 33.4998 19.6341L34.2277 18.7329C34.297 18.6405 34.3317 18.5828 34.3317 18.5596C34.3317 18.5365 34.3143 18.525 34.2797 18.525C33.91 18.525 33.3843 18.808 32.7027 19.3741C32.0095 19.9402 31.3972 20.5583 30.8658 21.2284C30.3228 21.8984 30.0513 22.3721 30.0513 22.6494C30.0513 22.6841 30.0744 22.7014 30.1206 22.7014ZM57.7455 5.90917C58.2422 6.18644 58.6466 6.56191 58.9585 7.03558C59.282 7.50925 59.4437 8.04069 59.4437 8.62989C59.4437 9.21909 59.074 9.89494 58.3347 10.6574C57.5953 11.4199 56.6941 12.0727 55.6313 12.6157C54.58 13.1471 53.6615 13.4128 52.8759 13.4128C52.1018 13.4128 51.5415 13.0893 51.1949 12.4424C49.2078 15.1111 48.0872 16.7285 47.833 17.2946C47.8446 17.3524 47.8504 17.4332 47.8504 17.5372C47.8504 17.6527 47.7868 17.7105 47.6597 17.7105C47.5327 17.7105 47.3651 17.6008 47.1572 17.3812C46.9608 17.1733 46.8626 16.8729 46.8626 16.4801C46.8626 16.3646 46.8684 16.2722 46.8799 16.2028C46.9839 15.4404 48.041 13.9385 50.0512 11.6972C52.073 9.45593 53.5286 8.09268 54.4182 7.60745C54.6031 7.51503 54.7417 7.46882 54.8341 7.46882C54.9265 7.46882 55.019 7.4977 55.1114 7.55547C55.2154 7.61323 55.2674 7.68255 55.2674 7.76342C55.2674 7.84429 55.2442 7.90783 55.198 7.95404C54.3316 8.85517 53.8117 9.40394 53.6384 9.60034L51.5762 11.9918C51.5531 12.0265 51.5415 12.0611 51.5415 12.0958C51.5415 12.1766 51.5935 12.2171 51.6975 12.2171C52.1596 12.2171 52.7835 12.0842 53.5691 11.8185C54.3662 11.5528 55.1518 11.2235 55.9259 10.8307C56.6999 10.4264 57.37 9.95848 57.9361 9.42704C58.5022 8.88405 58.7852 8.3815 58.7852 7.91938C58.7852 7.53814 58.4213 7.25509 57.6935 7.07024C56.9656 6.88539 56.18 6.79297 55.3367 6.79297C54.5049 6.79297 53.6037 6.91428 52.6333 7.15689C51.6628 7.38795 50.8137 7.67677 50.0859 8.02336C49.3696 8.36995 48.7226 8.73387 48.145 9.11511C47.5673 9.48481 47.1283 9.81407 46.8279 10.1029C46.5391 10.3802 46.3947 10.565 46.3947 10.6574C46.3947 10.7383 46.4351 10.7787 46.516 10.7787C46.5969 10.7787 46.8164 10.721 47.1745 10.6054C48.3298 10.2242 49.462 9.71009 50.5711 9.06313C50.6519 9.01691 50.7039 8.99381 50.727 8.99381C50.7617 8.99381 50.779 9.01114 50.779 9.0458C50.779 9.0689 50.7039 9.17865 50.5537 9.37505C50.4151 9.5599 50.2187 9.79096 49.9645 10.0682C49.7104 10.3339 49.4331 10.5939 49.1327 10.8481C48.8324 11.1022 48.4915 11.3217 48.1103 11.5066C47.7406 11.6799 47.3767 11.7665 47.0185 11.7665C46.672 11.7665 46.3254 11.6279 45.9788 11.3506C45.6437 11.0618 45.4762 10.6748 45.4762 10.1895C45.4762 9.69276 45.7188 9.15555 46.2041 8.5779C46.6893 8.00025 47.3247 7.45149 48.1103 6.93161C48.9075 6.41172 49.8952 5.97271 51.0736 5.61457C52.252 5.25643 53.4015 5.07736 54.5222 5.07736C55.6428 5.07736 56.7172 5.35463 57.7455 5.90917ZM57.765 16.2375C58.1346 16.2375 58.591 15.9949 59.134 15.5097C59.677 15.0244 59.96 14.6894 59.9831 14.5046C59.8445 14.389 59.6943 14.1811 59.5326 13.8807C59.3824 13.5688 59.3015 13.4128 59.2899 13.4128C58.9318 13.7478 58.6141 14.1349 58.3368 14.5739C57.8978 15.3133 57.6783 15.8216 57.6783 16.0989C57.6783 16.1913 57.7072 16.2375 57.765 16.2375ZM61.5081 11.9918C61.3926 11.9918 61.15 12.1709 60.7803 12.529C60.4221 12.8872 60.2431 13.1355 60.2431 13.2742C60.2431 13.3088 60.2777 13.3782 60.347 13.4821C60.4164 13.5861 60.4683 13.6381 60.503 13.6381C60.6994 13.6381 60.9189 13.4013 61.1615 12.9276C61.4157 12.4539 61.5428 12.1824 61.5428 12.1131C61.5428 12.0322 61.5312 11.9918 61.5081 11.9918ZM61.5428 14.2273C61.8662 14.2273 62.3688 14.0309 63.0504 13.6381C63.7436 13.2453 64.3501 12.8525 64.87 12.4597L65.6498 11.8532C65.7538 11.934 65.8058 12.0322 65.8058 12.1478C65.8058 12.2633 65.7538 12.3673 65.6498 12.4597C63.7436 14.2273 62.2995 15.1111 61.3175 15.1111C61.2482 15.1111 61.1442 15.0995 61.0056 15.0764C59.7001 16.5899 58.5794 17.3466 57.6436 17.3466C57.0198 17.2542 56.627 17.0347 56.4652 16.6881C56.3728 16.5148 56.3266 16.2953 56.3266 16.0296C56.3266 15.2671 56.7656 14.3602 57.6436 13.3088C58.5217 12.246 59.625 11.4661 60.9536 10.9694C61.0691 10.9694 61.1557 10.9982 61.2135 11.056C61.2713 11.1022 61.3233 11.1311 61.3695 11.1427C61.4157 11.1427 61.4734 11.1195 61.5428 11.0733C61.6236 11.0156 61.7276 10.9867 61.8547 10.9867C61.9818 10.9751 62.1146 11.0445 62.2533 11.1946C62.4381 11.3448 62.5305 11.5297 62.5305 11.7492C62.5305 12.3962 62.2013 13.2222 61.5428 14.2273ZM70.6082 11.6452C70.5967 12.0611 70.3367 12.4712 69.8284 12.8756C69.3316 13.28 68.7251 13.4821 68.0088 13.4821C67.7084 13.4821 67.5582 13.3955 67.5582 13.2222C67.5582 13.1529 67.6102 13.1009 67.7142 13.0662C68.4074 12.6619 68.8464 12.3326 69.0312 12.0784C69.0544 12.0322 69.0659 11.9802 69.0659 11.9225C69.0659 11.8647 69.037 11.8358 68.9793 11.8358C67.9973 11.9745 67.0615 12.5117 66.1719 13.4475C65.2823 14.3833 64.8375 15.1111 64.8375 15.631C64.8375 15.8736 64.9299 15.9949 65.1148 15.9949C65.9697 15.9949 66.8708 15.7465 67.8182 15.2497C68.7655 14.753 70.175 13.8403 72.0466 12.5117C72.1736 12.4193 72.3643 12.2806 72.6184 12.0958C72.8842 11.9109 73.0401 11.8012 73.0863 11.7665C73.1903 11.8474 73.2423 11.9456 73.2423 12.0611C73.2423 12.1766 73.1903 12.2806 73.0863 12.373C72.5087 12.9507 71.7577 13.5977 70.8335 14.3139C69.9208 15.0302 68.8695 15.7118 67.6795 16.3588C66.4896 16.9942 65.5191 17.3119 64.7682 17.3119C63.8786 17.3119 63.4338 16.8383 63.4338 15.8909C63.4338 15.2324 63.6533 14.5912 64.0924 13.9674C64.5314 13.3319 65.0686 12.8005 65.704 12.373C66.3394 11.9456 67.0037 11.6048 67.6969 11.3506C68.3901 11.0849 68.9446 10.952 69.3605 10.952C69.788 10.952 70.0941 11.0098 70.279 11.1253C70.4638 11.2409 70.562 11.3564 70.5736 11.4719L70.6082 11.6452ZM79.4091 6.46371C79.7095 6.46371 79.8828 6.53303 79.929 6.67167C79.929 6.71788 79.6402 7.04714 79.0625 7.65944C78.4964 8.2602 77.7108 9.09201 76.7057 10.1549C75.7122 11.2062 74.8573 12.142 74.141 12.9622C74.0948 12.9969 74.0717 13.0431 74.0717 13.1009C74.0717 13.1586 74.0832 13.1875 74.1063 13.1875C74.141 13.1875 74.1814 13.1644 74.2276 13.1182L74.8861 12.5983C75.3598 12.298 75.8797 12.0322 76.4458 11.8012C77.0234 11.5701 77.5029 11.4546 77.8841 11.4546C78.1152 11.5239 78.3289 11.6856 78.5253 11.9398C78.6293 12.0438 78.6813 12.1651 78.6813 12.3037C78.6813 12.7196 78.1672 13.2511 77.139 13.898C76.1223 14.545 75.1865 14.932 74.3316 15.0591C74.3201 15.0707 74.3143 15.0822 74.3143 15.0938C74.3143 15.1862 74.5858 15.5154 75.1288 16.0815C75.6833 16.6361 76.1108 17 76.4111 17.1733C76.6538 17.2888 76.8097 17.3466 76.879 17.3466C76.9252 17.3697 76.9484 17.3986 76.9484 17.4332C76.9484 17.4679 76.9137 17.5141 76.8444 17.5719C76.5787 17.7914 76.3072 17.9011 76.0299 17.9011C75.7526 17.9011 75.562 17.8896 75.458 17.8665C75.3656 17.8434 75.2732 17.8145 75.1807 17.7798C75.0883 17.7452 74.9728 17.6527 74.8342 17.5026C74.7071 17.3639 74.5742 17.2195 74.4356 17.0693C74.3085 16.9307 74.0948 16.6881 73.7944 16.3415C73.494 15.9833 73.1821 15.631 72.8586 15.2844C72.8124 15.2151 72.7604 15.1804 72.7026 15.1804C72.6449 15.1804 72.5871 15.2093 72.5293 15.2671C71.8131 15.81 71.3394 16.4108 71.1083 17.0693C71.0968 17.1733 71.0275 17.2253 70.9004 17.2253H70.8831C70.4094 17.2253 70.0917 16.9711 69.9299 16.4628C69.9299 16.3473 69.9819 16.1855 70.0859 15.9776C71.0795 14.4872 72.0441 13.228 72.9799 12.1998C73.9273 11.1715 75.6082 9.49058 78.0228 7.15689C78.2538 6.97204 78.404 6.85074 78.4733 6.79297C78.5427 6.73521 78.612 6.68322 78.6813 6.63701C78.7622 6.57924 78.8257 6.54458 78.8719 6.53303C78.9643 6.48682 79.0799 6.46371 79.2185 6.46371H79.4091ZM77.0003 12.3904C76.7693 12.4019 76.3823 12.5637 75.8393 12.8756C75.3078 13.1875 74.8284 13.4995 74.4009 13.8114L73.7771 14.262C73.7309 14.3082 73.7077 14.3486 73.7077 14.3833C73.7077 14.4064 73.7251 14.4179 73.7597 14.4179C74.037 14.4179 74.6551 14.1291 75.614 13.5514C76.5729 12.9622 77.0523 12.5983 77.0523 12.4597L77.0003 12.3904ZM83.8381 11.7665C83.5378 11.7665 83.0294 12.0784 82.3132 12.7023C81.5969 13.3146 81.2387 13.6901 81.2387 13.8287C81.2387 13.8518 81.2561 13.8634 81.2907 13.8634C81.5449 13.8634 82.0474 13.5803 82.7984 13.0142C83.5609 12.4481 83.9421 12.0611 83.9421 11.8532C83.9421 11.7954 83.9075 11.7665 83.8381 11.7665ZM80.147 17.3119C79.2574 17.3119 78.8126 16.7689 78.8126 15.683C78.8126 15.0013 79.1072 14.2793 79.6964 13.5168C80.2972 12.7427 81.0019 12.1131 81.8106 11.6279C82.6193 11.1311 83.3356 10.8827 83.9595 10.8827C84.2367 10.8827 84.4909 10.9925 84.7219 11.212C84.9646 11.4315 85.0859 11.6452 85.0859 11.8532C85.0859 12.2344 84.8144 12.6676 84.2714 13.1529C83.7284 13.6265 83.1565 14.0136 82.5558 14.3139C81.9666 14.6028 81.5738 14.7472 81.3774 14.7472C81.1925 14.7472 81.0539 14.6605 80.9615 14.4872C80.9153 14.4526 80.8517 14.4352 80.7708 14.4352C80.69 14.4352 80.5571 14.5912 80.3723 14.9031C80.1874 15.2035 80.095 15.4519 80.095 15.6483C80.095 15.8332 80.1643 15.9487 80.3029 15.9949C81.181 15.9949 82.1341 15.7407 83.1623 15.2324C84.1905 14.7125 85.6115 13.8056 87.4253 12.5117C87.5524 12.4193 87.743 12.2806 87.9972 12.0958C88.2629 11.9109 88.4189 11.8012 88.4651 11.7665C88.5691 11.8474 88.6211 11.9456 88.6211 12.0611C88.6211 12.1766 88.5691 12.2806 88.4651 12.373C87.8875 12.9507 87.1365 13.5977 86.2123 14.3139C85.2996 15.0302 84.2483 15.7118 83.0583 16.3588C81.8684 16.9942 80.8979 17.3119 80.147 17.3119ZM93.5991 8.99381L94.4829 8.97648C95.6266 8.97648 96.4584 9.13822 96.9783 9.4617C97.2325 9.54257 97.3596 9.64655 97.3596 9.77363C97.3596 9.86606 97.244 9.9296 97.013 9.96426C96.7935 9.99891 96.0136 10.0913 94.6735 10.2415C93.3449 10.3802 92.4322 10.461 91.9355 10.4841C91.7159 10.4957 91.2076 10.8769 90.4105 11.6279C89.6249 12.3788 88.8739 13.2049 88.1576 14.106C87.4414 15.0071 87.0832 15.6368 87.0832 15.9949C87.0832 16.0527 87.1121 16.1046 87.1699 16.1509C87.2276 16.1855 87.2969 16.2028 87.3778 16.2028C87.4702 16.2028 87.6089 16.1682 87.7937 16.0989C89.9888 14.8049 92.1203 13.3897 94.1883 11.8532C94.2923 11.934 94.3442 12.0322 94.3442 12.1478C94.3442 12.2633 94.2865 12.3788 94.1709 12.4944C94.0554 12.5983 93.8821 12.7543 93.6511 12.9622C93.4316 13.1702 93.0157 13.5457 92.4033 14.0887C91.791 14.6316 91.2134 15.1169 90.6704 15.5443C89.2147 16.7227 88.1981 17.4044 87.6204 17.5892C87.4125 17.647 87.1641 17.6758 86.8753 17.6758C86.598 17.6758 86.3381 17.5314 86.0954 17.2426C85.8644 16.9538 85.7489 16.561 85.7489 16.0642C85.7489 15.5674 86.0666 14.8512 86.702 13.9154C87.3489 12.9796 88.227 12.0207 89.336 11.0387C89.44 10.9578 89.492 10.8827 89.492 10.8134C89.492 10.7441 89.3707 10.7094 89.1281 10.7094L88.0363 10.7441C86.4998 10.7441 85.7084 10.5708 85.6622 10.2242C85.3041 10.1549 85.125 10.0509 85.125 9.91227C85.125 9.86606 85.1481 9.84295 85.1943 9.84295C85.2405 9.8314 85.281 9.82562 85.3156 9.82562C85.3503 9.81407 85.408 9.80251 85.4889 9.79096C85.5698 9.77941 86.2052 9.68698 87.3951 9.51369C88.5967 9.3404 89.9599 9.19598 91.4849 9.08045L92.6806 7.48615C92.7499 7.34751 92.9925 7.27819 93.4085 7.27819C93.8244 7.27819 94.0323 7.36484 94.0323 7.53814C94.0323 7.5959 93.9861 7.69988 93.8937 7.85007L93.4604 8.4566C93.4027 8.64144 93.368 8.78008 93.3565 8.8725C93.3565 8.95337 93.4373 8.99381 93.5991 8.99381Z" fill="white"/>
</svg>
